<mxfile host="65bd71144e">
    <diagram name="ページ1" id="KGAW5IKwB1PtyniCg7fF">
        <mxGraphModel dx="1701" dy="808" grid="1" gridSize="10" guides="1" tooltips="1" connect="1" arrows="1" fold="1" page="1" pageScale="1" pageWidth="827" pageHeight="1169" background="#FFFFFF" math="0" shadow="0">
            <root>
                <mxCell id="0"/>
                <mxCell id="1" parent="0"/>
                <mxCell id="80xBdCF-kYbZM-QKRMuW-47" value="" style="endArrow=none;html=1;rounded=0;fillColor=#dae8fc;strokeColor=#6c8ebf;strokeWidth=4;startArrow=none;startFill=0;endFill=0;" parent="1" edge="1">
                    <mxGeometry width="50" height="50" relative="1" as="geometry">
                        <mxPoint x="1060" y="1780" as="sourcePoint"/>
                        <mxPoint x="1020" y="1780" as="targetPoint"/>
                    </mxGeometry>
                </mxCell>
                <mxCell id="80xBdCF-kYbZM-QKRMuW-48" value="" style="endArrow=none;html=1;rounded=0;fillColor=#dae8fc;strokeColor=#6c8ebf;strokeWidth=4;startArrow=none;startFill=0;endFill=0;" parent="1" edge="1">
                    <mxGeometry width="50" height="50" relative="1" as="geometry">
                        <mxPoint x="1060" y="1820" as="sourcePoint"/>
                        <mxPoint x="1020" y="1820" as="targetPoint"/>
                    </mxGeometry>
                </mxCell>
                <mxCell id="EHqpeQSWTMFwKQJ2zAnR-4" value="" style="endArrow=block;html=1;rounded=0;fillColor=#d5e8d4;strokeColor=#82b366;strokeWidth=4;endFill=1;targetPerimeterSpacing=0;shadow=0;" parent="1" edge="1">
                    <mxGeometry width="50" height="50" relative="1" as="geometry">
                        <mxPoint x="80" y="460" as="sourcePoint"/>
                        <mxPoint x="320" y="460" as="targetPoint"/>
                    </mxGeometry>
                </mxCell>
                <mxCell id="EHqpeQSWTMFwKQJ2zAnR-6" value="DC12V" style="edgeLabel;align=center;verticalAlign=middle;resizable=0;points=[];labelBorderColor=none;html=1;" parent="EHqpeQSWTMFwKQJ2zAnR-4" vertex="1" connectable="0">
                    <mxGeometry x="0.4286" y="2" relative="1" as="geometry">
                        <mxPoint x="-51" y="2" as="offset"/>
                    </mxGeometry>
                </mxCell>
                <mxCell id="EHqpeQSWTMFwKQJ2zAnR-10" value="" style="endArrow=none;html=1;rounded=0;fillColor=#d5e8d4;strokeColor=#82b366;strokeWidth=4;startArrow=block;startFill=1;" parent="1" edge="1">
                    <mxGeometry width="50" height="50" relative="1" as="geometry">
                        <mxPoint x="1140" y="500" as="sourcePoint"/>
                        <mxPoint x="1260" y="500" as="targetPoint"/>
                    </mxGeometry>
                </mxCell>
                <mxCell id="EHqpeQSWTMFwKQJ2zAnR-11" value="DC12V" style="edgeLabel;align=center;verticalAlign=middle;resizable=0;points=[];labelBorderColor=none;html=1;" parent="EHqpeQSWTMFwKQJ2zAnR-10" vertex="1" connectable="0">
                    <mxGeometry x="0.4286" y="2" relative="1" as="geometry">
                        <mxPoint x="-26" y="2" as="offset"/>
                    </mxGeometry>
                </mxCell>
                <mxCell id="EHqpeQSWTMFwKQJ2zAnR-8" value="" style="endArrow=block;html=1;rounded=0;fillColor=#d5e8d4;strokeColor=#82b366;strokeWidth=4;startArrow=none;startFill=0;endFill=1;" parent="1" edge="1">
                    <mxGeometry width="50" height="50" relative="1" as="geometry">
                        <mxPoint x="1140" y="459.65999999999997" as="sourcePoint"/>
                        <mxPoint x="1260" y="460" as="targetPoint"/>
                    </mxGeometry>
                </mxCell>
                <mxCell id="EHqpeQSWTMFwKQJ2zAnR-9" value="DC18V" style="edgeLabel;align=center;verticalAlign=middle;resizable=0;points=[];labelBorderColor=none;html=1;" parent="EHqpeQSWTMFwKQJ2zAnR-8" vertex="1" connectable="0">
                    <mxGeometry x="0.4286" y="2" relative="1" as="geometry">
                        <mxPoint x="-26" y="2" as="offset"/>
                    </mxGeometry>
                </mxCell>
                <mxCell id="EHqpeQSWTMFwKQJ2zAnR-3" value="電源入力&lt;br&gt;2.1mm DCジャック" style="rounded=0;whiteSpace=wrap;html=1;" parent="1" vertex="1">
                    <mxGeometry x="-100" y="440" width="180" height="40" as="geometry"/>
                </mxCell>
                <mxCell id="EHqpeQSWTMFwKQJ2zAnR-7" value="&lt;strike&gt;&lt;font color=&quot;#b3b3b3&quot;&gt;DC/DCコンバータ&lt;br&gt;18V/12V&lt;/font&gt;&lt;/strike&gt;" style="rounded=0;whiteSpace=wrap;html=1;strokeColor=#B3B3B3;" parent="1" vertex="1">
                    <mxGeometry x="1260" y="440" width="120" height="80" as="geometry"/>
                </mxCell>
                <mxCell id="EHqpeQSWTMFwKQJ2zAnR-30" value="&lt;div style=&quot;&quot;&gt;&lt;span style=&quot;background-color: initial;&quot;&gt;&lt;font style=&quot;font-size: 32px;&quot;&gt;サテライトコントローラ　データフロー図&lt;/font&gt;&lt;/span&gt;&lt;/div&gt;&lt;br&gt;※ 概念図なので実際の配線は異なる" style="text;html=1;strokeColor=none;fillColor=none;align=left;verticalAlign=middle;whiteSpace=wrap;rounded=0;" parent="1" vertex="1">
                    <mxGeometry x="-79.3" y="160" width="670" height="80" as="geometry"/>
                </mxCell>
                <mxCell id="EHqpeQSWTMFwKQJ2zAnR-36" value="ランサテ通信&lt;br&gt;RJ-45 モジュラージャック" style="rounded=0;whiteSpace=wrap;html=1;" parent="1" vertex="1">
                    <mxGeometry x="-100.35" y="520" width="180" height="40" as="geometry"/>
                </mxCell>
                <mxCell id="EHqpeQSWTMFwKQJ2zAnR-37" value="" style="endArrow=block;html=1;rounded=0;fillColor=#ffe6cc;strokeColor=#d79b00;strokeWidth=4;startArrow=block;startFill=1;endFill=1;" parent="1" edge="1">
                    <mxGeometry width="50" height="50" relative="1" as="geometry">
                        <mxPoint x="319.65" y="539.58" as="sourcePoint"/>
                        <mxPoint x="79.65" y="539.58" as="targetPoint"/>
                    </mxGeometry>
                </mxCell>
                <mxCell id="EHqpeQSWTMFwKQJ2zAnR-38" value="RS485" style="edgeLabel;html=1;align=center;verticalAlign=middle;resizable=0;points=[];" parent="EHqpeQSWTMFwKQJ2zAnR-37" vertex="1" connectable="0">
                    <mxGeometry x="-0.3333" y="2" relative="1" as="geometry">
                        <mxPoint x="-40" y="-2" as="offset"/>
                    </mxGeometry>
                </mxCell>
                <mxCell id="EHqpeQSWTMFwKQJ2zAnR-44" value="PC通信&lt;br&gt;USB Type-B レセプタクル" style="rounded=0;whiteSpace=wrap;html=1;" parent="1" vertex="1">
                    <mxGeometry x="-99.65" y="860" width="180" height="40" as="geometry"/>
                </mxCell>
                <mxCell id="EHqpeQSWTMFwKQJ2zAnR-46" value="" style="endArrow=block;html=1;rounded=0;fillColor=#ffe6cc;strokeColor=#d79b00;strokeWidth=4;startArrow=block;startFill=1;endFill=1;" parent="1" edge="1">
                    <mxGeometry width="50" height="50" relative="1" as="geometry">
                        <mxPoint x="320.35" y="879.58" as="sourcePoint"/>
                        <mxPoint x="80.35" y="879.58" as="targetPoint"/>
                    </mxGeometry>
                </mxCell>
                <mxCell id="EHqpeQSWTMFwKQJ2zAnR-47" value="USB 2.0" style="edgeLabel;html=1;align=center;verticalAlign=middle;resizable=0;points=[];" parent="EHqpeQSWTMFwKQJ2zAnR-46" vertex="1" connectable="0">
                    <mxGeometry x="-0.3333" y="2" relative="1" as="geometry">
                        <mxPoint x="-40" y="-2" as="offset"/>
                    </mxGeometry>
                </mxCell>
                <mxCell id="EHqpeQSWTMFwKQJ2zAnR-50" value="側面パネル" style="text;html=1;strokeColor=none;fillColor=none;align=right;verticalAlign=middle;whiteSpace=wrap;rounded=0;fontSize=24;" parent="1" vertex="1">
                    <mxGeometry x="-160" y="390" width="220" height="30" as="geometry"/>
                </mxCell>
                <mxCell id="EHqpeQSWTMFwKQJ2zAnR-51" value="ステータスパネル" style="text;html=1;strokeColor=none;fillColor=none;align=right;verticalAlign=middle;whiteSpace=wrap;rounded=0;fontSize=24;" parent="1" vertex="1">
                    <mxGeometry x="-159.65" y="810" width="220" height="30" as="geometry"/>
                </mxCell>
                <mxCell id="EHqpeQSWTMFwKQJ2zAnR-52" value="RESET SW" style="rounded=0;whiteSpace=wrap;html=1;" parent="1" vertex="1">
                    <mxGeometry x="-39.65" y="920" width="120" height="20" as="geometry"/>
                </mxCell>
                <mxCell id="EHqpeQSWTMFwKQJ2zAnR-53" value="" style="endArrow=none;html=1;rounded=0;fillColor=#dae8fc;strokeColor=#6c8ebf;strokeWidth=4;startArrow=block;startFill=1;endFill=0;" parent="1" edge="1">
                    <mxGeometry width="50" height="50" relative="1" as="geometry">
                        <mxPoint x="320.35" y="929.5799999999999" as="sourcePoint"/>
                        <mxPoint x="80.35" y="929.5799999999999" as="targetPoint"/>
                    </mxGeometry>
                </mxCell>
                <mxCell id="EHqpeQSWTMFwKQJ2zAnR-55" value="BATT LED" style="rounded=0;whiteSpace=wrap;html=1;" parent="1" vertex="1">
                    <mxGeometry x="-39.65" y="950" width="120" height="20" as="geometry"/>
                </mxCell>
                <mxCell id="EHqpeQSWTMFwKQJ2zAnR-58" value="" style="endArrow=block;html=1;rounded=0;fillColor=#dae8fc;strokeColor=#6c8ebf;strokeWidth=4;startArrow=none;startFill=0;endFill=1;" parent="1" edge="1">
                    <mxGeometry width="50" height="50" relative="1" as="geometry">
                        <mxPoint x="320.35" y="959.5799999999999" as="sourcePoint"/>
                        <mxPoint x="80.35" y="959.5799999999999" as="targetPoint"/>
                    </mxGeometry>
                </mxCell>
                <mxCell id="EHqpeQSWTMFwKQJ2zAnR-59" value="12V LED" style="rounded=0;whiteSpace=wrap;html=1;" parent="1" vertex="1">
                    <mxGeometry x="-39.65" y="980" width="120" height="20" as="geometry"/>
                </mxCell>
                <mxCell id="EHqpeQSWTMFwKQJ2zAnR-61" value="" style="endArrow=block;html=1;rounded=0;fillColor=#dae8fc;strokeColor=#6C8EBF;strokeWidth=4;startArrow=none;startFill=0;endFill=1;" parent="1" edge="1">
                    <mxGeometry width="50" height="50" relative="1" as="geometry">
                        <mxPoint x="320.35" y="989.5799999999999" as="sourcePoint"/>
                        <mxPoint x="80.35" y="989.5799999999999" as="targetPoint"/>
                    </mxGeometry>
                </mxCell>
                <mxCell id="EHqpeQSWTMFwKQJ2zAnR-64" value="5V LED" style="rounded=0;whiteSpace=wrap;html=1;" parent="1" vertex="1">
                    <mxGeometry x="-39.65" y="1010" width="120" height="20" as="geometry"/>
                </mxCell>
                <mxCell id="EHqpeQSWTMFwKQJ2zAnR-65" value="" style="endArrow=block;html=1;rounded=0;fillColor=#dae8fc;strokeColor=#6c8ebf;strokeWidth=4;startArrow=none;startFill=0;endFill=1;" parent="1" edge="1">
                    <mxGeometry width="50" height="50" relative="1" as="geometry">
                        <mxPoint x="320.35" y="1019.5799999999999" as="sourcePoint"/>
                        <mxPoint x="80.35" y="1019.5799999999999" as="targetPoint"/>
                    </mxGeometry>
                </mxCell>
                <mxCell id="EHqpeQSWTMFwKQJ2zAnR-67" value="LOW LED" style="rounded=0;whiteSpace=wrap;html=1;" parent="1" vertex="1">
                    <mxGeometry x="-39.65" y="1040" width="120" height="20" as="geometry"/>
                </mxCell>
                <mxCell id="EHqpeQSWTMFwKQJ2zAnR-68" value="" style="endArrow=block;html=1;rounded=0;fillColor=#dae8fc;strokeColor=#6c8ebf;strokeWidth=4;startArrow=none;startFill=0;endFill=1;" parent="1" edge="1">
                    <mxGeometry width="50" height="50" relative="1" as="geometry">
                        <mxPoint x="320.35" y="1049.58" as="sourcePoint"/>
                        <mxPoint x="80.35" y="1049.58" as="targetPoint"/>
                    </mxGeometry>
                </mxCell>
                <mxCell id="EHqpeQSWTMFwKQJ2zAnR-70" value="TASK LED" style="rounded=0;whiteSpace=wrap;html=1;" parent="1" vertex="1">
                    <mxGeometry x="-39.65" y="1070" width="120" height="20" as="geometry"/>
                </mxCell>
                <mxCell id="EHqpeQSWTMFwKQJ2zAnR-71" value="" style="endArrow=block;html=1;rounded=0;fillColor=#dae8fc;strokeColor=#6c8ebf;strokeWidth=4;startArrow=none;startFill=0;endFill=1;" parent="1" edge="1">
                    <mxGeometry width="50" height="50" relative="1" as="geometry">
                        <mxPoint x="320.35" y="1079.58" as="sourcePoint"/>
                        <mxPoint x="80.35" y="1079.58" as="targetPoint"/>
                    </mxGeometry>
                </mxCell>
                <mxCell id="EHqpeQSWTMFwKQJ2zAnR-72" value="COM LED" style="rounded=0;whiteSpace=wrap;html=1;" parent="1" vertex="1">
                    <mxGeometry x="-39.65" y="1100" width="120" height="20" as="geometry"/>
                </mxCell>
                <mxCell id="EHqpeQSWTMFwKQJ2zAnR-73" value="" style="endArrow=block;html=1;rounded=0;fillColor=#dae8fc;strokeColor=#6c8ebf;strokeWidth=4;startArrow=none;startFill=0;endFill=1;" parent="1" edge="1">
                    <mxGeometry width="50" height="50" relative="1" as="geometry">
                        <mxPoint x="320.35" y="1109.58" as="sourcePoint"/>
                        <mxPoint x="80.35" y="1109.58" as="targetPoint"/>
                    </mxGeometry>
                </mxCell>
                <mxCell id="EHqpeQSWTMFwKQJ2zAnR-74" value="ERR LED" style="rounded=0;whiteSpace=wrap;html=1;" parent="1" vertex="1">
                    <mxGeometry x="-39.65" y="1130" width="120" height="20" as="geometry"/>
                </mxCell>
                <mxCell id="EHqpeQSWTMFwKQJ2zAnR-75" value="" style="endArrow=block;html=1;rounded=0;fillColor=#dae8fc;strokeColor=#6c8ebf;strokeWidth=4;startArrow=none;startFill=0;endFill=1;" parent="1" edge="1">
                    <mxGeometry width="50" height="50" relative="1" as="geometry">
                        <mxPoint x="320.35" y="1139.58" as="sourcePoint"/>
                        <mxPoint x="80.35" y="1139.58" as="targetPoint"/>
                    </mxGeometry>
                </mxCell>
                <mxCell id="EHqpeQSWTMFwKQJ2zAnR-76" value="USB LED" style="rounded=0;whiteSpace=wrap;html=1;" parent="1" vertex="1">
                    <mxGeometry x="-39.65" y="1160" width="120" height="20" as="geometry"/>
                </mxCell>
                <mxCell id="EHqpeQSWTMFwKQJ2zAnR-77" value="" style="endArrow=block;html=1;rounded=0;fillColor=#dae8fc;strokeColor=#6c8ebf;strokeWidth=4;startArrow=none;startFill=0;endFill=1;" parent="1" edge="1">
                    <mxGeometry width="50" height="50" relative="1" as="geometry">
                        <mxPoint x="320.35" y="1169.58" as="sourcePoint"/>
                        <mxPoint x="80.35" y="1169.58" as="targetPoint"/>
                    </mxGeometry>
                </mxCell>
                <mxCell id="EHqpeQSWTMFwKQJ2zAnR-78" value="RS485 LED" style="rounded=0;whiteSpace=wrap;html=1;" parent="1" vertex="1">
                    <mxGeometry x="-39.65" y="1190" width="120" height="20" as="geometry"/>
                </mxCell>
                <mxCell id="EHqpeQSWTMFwKQJ2zAnR-79" value="" style="endArrow=block;html=1;rounded=0;fillColor=#dae8fc;strokeColor=#6c8ebf;strokeWidth=4;startArrow=none;startFill=0;endFill=1;" parent="1" edge="1">
                    <mxGeometry width="50" height="50" relative="1" as="geometry">
                        <mxPoint x="320.35" y="1199.58" as="sourcePoint"/>
                        <mxPoint x="80.35" y="1199.58" as="targetPoint"/>
                    </mxGeometry>
                </mxCell>
                <mxCell id="EHqpeQSWTMFwKQJ2zAnR-87" value="メインパネル（入）" style="text;html=1;strokeColor=none;fillColor=none;align=right;verticalAlign=middle;whiteSpace=wrap;rounded=0;fontSize=24;" parent="1" vertex="1">
                    <mxGeometry x="-159.65" y="1280" width="220" height="30" as="geometry"/>
                </mxCell>
                <mxCell id="EHqpeQSWTMFwKQJ2zAnR-88" value="" style="rounded=0;whiteSpace=wrap;html=1;fillColor=#6C8EBF;strokeColor=none;" parent="1" vertex="1">
                    <mxGeometry x="190.35" y="920" width="20" height="290" as="geometry"/>
                </mxCell>
                <mxCell id="EHqpeQSWTMFwKQJ2zAnR-91" value="RUN SW" style="rounded=0;whiteSpace=wrap;html=1;" parent="1" vertex="1">
                    <mxGeometry x="-38.95" y="1330" width="120" height="20" as="geometry"/>
                </mxCell>
                <mxCell id="EHqpeQSWTMFwKQJ2zAnR-92" value="KILL SW" style="rounded=0;whiteSpace=wrap;html=1;" parent="1" vertex="1">
                    <mxGeometry x="-38.95" y="1360" width="120" height="20" as="geometry"/>
                </mxCell>
                <mxCell id="EHqpeQSWTMFwKQJ2zAnR-93" value="SAFETY SW" style="rounded=0;whiteSpace=wrap;html=1;" parent="1" vertex="1">
                    <mxGeometry x="-38.95" y="1390" width="120" height="20" as="geometry"/>
                </mxCell>
                <mxCell id="EHqpeQSWTMFwKQJ2zAnR-110" value="PURGE SW" style="rounded=0;whiteSpace=wrap;html=1;" parent="1" vertex="1">
                    <mxGeometry x="-38.95" y="1420" width="120" height="20" as="geometry"/>
                </mxCell>
                <mxCell id="EHqpeQSWTMFwKQJ2zAnR-111" value="" style="endArrow=none;html=1;rounded=0;fillColor=#dae8fc;strokeColor=#6c8ebf;strokeWidth=4;startArrow=block;startFill=1;endFill=0;" parent="1" edge="1">
                    <mxGeometry width="50" height="50" relative="1" as="geometry">
                        <mxPoint x="321.05" y="1339.52" as="sourcePoint"/>
                        <mxPoint x="81.05" y="1339.52" as="targetPoint"/>
                    </mxGeometry>
                </mxCell>
                <mxCell id="EHqpeQSWTMFwKQJ2zAnR-112" value="" style="endArrow=none;html=1;rounded=0;fillColor=#dae8fc;strokeColor=#6c8ebf;strokeWidth=4;startArrow=block;startFill=1;endFill=0;" parent="1" edge="1">
                    <mxGeometry width="50" height="50" relative="1" as="geometry">
                        <mxPoint x="320.7" y="1369.52" as="sourcePoint"/>
                        <mxPoint x="80.7" y="1369.52" as="targetPoint"/>
                    </mxGeometry>
                </mxCell>
                <mxCell id="EHqpeQSWTMFwKQJ2zAnR-113" value="" style="endArrow=none;html=1;rounded=0;fillColor=#dae8fc;strokeColor=#6c8ebf;strokeWidth=4;startArrow=block;startFill=1;endFill=0;" parent="1" edge="1">
                    <mxGeometry width="50" height="50" relative="1" as="geometry">
                        <mxPoint x="321.05" y="1399.52" as="sourcePoint"/>
                        <mxPoint x="81.05" y="1399.52" as="targetPoint"/>
                    </mxGeometry>
                </mxCell>
                <mxCell id="EHqpeQSWTMFwKQJ2zAnR-114" value="" style="endArrow=none;html=1;rounded=0;fillColor=#dae8fc;strokeColor=#6c8ebf;strokeWidth=4;startArrow=block;startFill=1;endFill=0;" parent="1" edge="1">
                    <mxGeometry width="50" height="50" relative="1" as="geometry">
                        <mxPoint x="321.05" y="1429.52" as="sourcePoint"/>
                        <mxPoint x="81.05" y="1429.52" as="targetPoint"/>
                    </mxGeometry>
                </mxCell>
                <mxCell id="EHqpeQSWTMFwKQJ2zAnR-124" value="" style="rounded=0;whiteSpace=wrap;html=1;fillColor=#6C8EBF;strokeColor=none;" parent="1" vertex="1">
                    <mxGeometry x="191.05" y="1330" width="20" height="110" as="geometry"/>
                </mxCell>
                <mxCell id="EHqpeQSWTMFwKQJ2zAnR-127" value="側面パネル" style="text;html=1;strokeColor=none;fillColor=none;align=left;verticalAlign=middle;whiteSpace=wrap;rounded=0;fontSize=24;" parent="1" vertex="1">
                    <mxGeometry x="1400" y="1370" width="220" height="30" as="geometry"/>
                </mxCell>
                <mxCell id="EHqpeQSWTMFwKQJ2zAnR-86" value="" style="endArrow=none;html=1;rounded=0;strokeWidth=4;" parent="1" edge="1">
                    <mxGeometry width="50" height="50" relative="1" as="geometry">
                        <mxPoint x="81.05" y="1480" as="sourcePoint"/>
                        <mxPoint x="81.05" y="1290" as="targetPoint"/>
                    </mxGeometry>
                </mxCell>
                <mxCell id="EHqpeQSWTMFwKQJ2zAnR-45" value="" style="endArrow=none;html=1;rounded=0;strokeWidth=4;" parent="1" edge="1">
                    <mxGeometry width="50" height="50" relative="1" as="geometry">
                        <mxPoint x="80" y="1250" as="sourcePoint"/>
                        <mxPoint x="80.35" y="820" as="targetPoint"/>
                    </mxGeometry>
                </mxCell>
                <mxCell id="EHqpeQSWTMFwKQJ2zAnR-1" value="" style="rounded=0;whiteSpace=wrap;html=1;fillColor=none;strokeWidth=2;movable=0;resizable=0;rotatable=0;deletable=0;editable=0;locked=1;connectable=0;" parent="1" vertex="1">
                    <mxGeometry x="320" y="210" width="820" height="1710" as="geometry"/>
                </mxCell>
                <mxCell id="EHqpeQSWTMFwKQJ2zAnR-178" value="2P Push-In" style="rounded=0;whiteSpace=wrap;html=1;" parent="1" vertex="1">
                    <mxGeometry x="320" y="450" width="80" height="20" as="geometry"/>
                </mxCell>
                <mxCell id="EHqpeQSWTMFwKQJ2zAnR-179" value="2P Push-In" style="rounded=0;whiteSpace=wrap;html=1;" parent="1" vertex="1">
                    <mxGeometry x="1060" y="450" width="80" height="20" as="geometry"/>
                </mxCell>
                <mxCell id="EHqpeQSWTMFwKQJ2zAnR-180" value="" style="endArrow=none;html=1;rounded=0;fillColor=#d5e8d4;strokeColor=#82b366;strokeWidth=4;endFill=0;targetPerimeterSpacing=0;shadow=0;" parent="1" edge="1">
                    <mxGeometry width="50" height="50" relative="1" as="geometry">
                        <mxPoint x="400" y="459.52" as="sourcePoint"/>
                        <mxPoint x="480" y="460" as="targetPoint"/>
                    </mxGeometry>
                </mxCell>
                <mxCell id="EHqpeQSWTMFwKQJ2zAnR-184" value="" style="endArrow=none;html=1;rounded=0;fillColor=#d5e8d4;strokeColor=#82b366;strokeWidth=4;endFill=0;targetPerimeterSpacing=0;shadow=0;" parent="1" edge="1">
                    <mxGeometry width="50" height="50" relative="1" as="geometry">
                        <mxPoint x="590" y="460" as="sourcePoint"/>
                        <mxPoint x="900" y="460" as="targetPoint"/>
                    </mxGeometry>
                </mxCell>
                <mxCell id="EHqpeQSWTMFwKQJ2zAnR-185" value="" style="endArrow=none;html=1;rounded=0;fillColor=#d5e8d4;strokeColor=#82b366;strokeWidth=4;endFill=0;targetPerimeterSpacing=0;shadow=0;" parent="1" edge="1">
                    <mxGeometry width="50" height="50" relative="1" as="geometry">
                        <mxPoint x="960" y="460" as="sourcePoint"/>
                        <mxPoint x="1060" y="460" as="targetPoint"/>
                    </mxGeometry>
                </mxCell>
                <mxCell id="EHqpeQSWTMFwKQJ2zAnR-186" value="2P Push-In" style="rounded=0;whiteSpace=wrap;html=1;" parent="1" vertex="1">
                    <mxGeometry x="1060" y="490" width="80" height="20" as="geometry"/>
                </mxCell>
                <mxCell id="EHqpeQSWTMFwKQJ2zAnR-187" value="" style="endArrow=none;html=1;rounded=0;fillColor=#dae8fc;strokeColor=#6c8ebf;strokeWidth=4;startArrow=none;startFill=0;endFill=0;" parent="1" edge="1">
                    <mxGeometry width="50" height="50" relative="1" as="geometry">
                        <mxPoint x="530" y="480" as="sourcePoint"/>
                        <mxPoint x="640" y="950" as="targetPoint"/>
                        <Array as="points">
                            <mxPoint x="530" y="950"/>
                        </Array>
                    </mxGeometry>
                </mxCell>
                <mxCell id="EHqpeQSWTMFwKQJ2zAnR-188" value="" style="endArrow=none;html=1;rounded=0;fillColor=#ffe6cc;strokeColor=#d79b00;strokeWidth=4;startArrow=none;startFill=0;endFill=0;" parent="1" edge="1">
                    <mxGeometry width="50" height="50" relative="1" as="geometry">
                        <mxPoint x="940" y="520" as="sourcePoint"/>
                        <mxPoint x="920" y="750" as="targetPoint"/>
                        <Array as="points">
                            <mxPoint x="940" y="620"/>
                            <mxPoint x="940" y="750"/>
                        </Array>
                    </mxGeometry>
                </mxCell>
                <mxCell id="EHqpeQSWTMFwKQJ2zAnR-216" value="I2C" style="edgeLabel;html=1;align=center;verticalAlign=middle;resizable=0;points=[];" parent="EHqpeQSWTMFwKQJ2zAnR-188" vertex="1" connectable="0">
                    <mxGeometry x="-0.5678" y="1" relative="1" as="geometry">
                        <mxPoint x="-1" y="86" as="offset"/>
                    </mxGeometry>
                </mxCell>
                <mxCell id="EHqpeQSWTMFwKQJ2zAnR-183" value="電力モニタ" style="rounded=0;whiteSpace=wrap;html=1;" parent="1" vertex="1">
                    <mxGeometry x="900" y="440" width="80" height="40" as="geometry"/>
                </mxCell>
                <mxCell id="EHqpeQSWTMFwKQJ2zAnR-182" value="ロードスイッチ" style="rounded=0;whiteSpace=wrap;html=1;" parent="1" vertex="1">
                    <mxGeometry x="470" y="440" width="120" height="40" as="geometry"/>
                </mxCell>
                <mxCell id="EHqpeQSWTMFwKQJ2zAnR-191" value="" style="endArrow=none;html=1;rounded=0;fillColor=#d5e8d4;strokeColor=#82b366;strokeWidth=4;endFill=0;targetPerimeterSpacing=0;shadow=0;startArrow=none;startFill=0;" parent="1" edge="1">
                    <mxGeometry width="50" height="50" relative="1" as="geometry">
                        <mxPoint x="960" y="499.76" as="sourcePoint"/>
                        <mxPoint x="1060" y="500" as="targetPoint"/>
                    </mxGeometry>
                </mxCell>
                <mxCell id="EHqpeQSWTMFwKQJ2zAnR-192" value="DC/DCコンバータ&lt;br&gt;12V/5V" style="rounded=0;whiteSpace=wrap;html=1;" parent="1" vertex="1">
                    <mxGeometry x="680" y="480" width="120" height="40" as="geometry"/>
                </mxCell>
                <mxCell id="EHqpeQSWTMFwKQJ2zAnR-193" value="" style="endArrow=none;html=1;rounded=0;fillColor=#d5e8d4;strokeColor=#82b366;strokeWidth=4;endFill=0;targetPerimeterSpacing=0;shadow=0;startArrow=none;startFill=0;" parent="1" edge="1">
                    <mxGeometry width="50" height="50" relative="1" as="geometry">
                        <mxPoint x="800" y="500" as="sourcePoint"/>
                        <mxPoint x="900" y="500" as="targetPoint"/>
                    </mxGeometry>
                </mxCell>
                <mxCell id="EHqpeQSWTMFwKQJ2zAnR-195" value="RS485&lt;br&gt;トランシーバ" style="rounded=0;whiteSpace=wrap;html=1;opacity=70;" parent="1" vertex="1">
                    <mxGeometry x="520" y="520" width="80" height="40" as="geometry"/>
                </mxCell>
                <mxCell id="EHqpeQSWTMFwKQJ2zAnR-197" value="RJ-45" style="rounded=0;whiteSpace=wrap;html=1;" parent="1" vertex="1">
                    <mxGeometry x="320" y="530" width="80" height="20" as="geometry"/>
                </mxCell>
                <mxCell id="EHqpeQSWTMFwKQJ2zAnR-198" value="" style="endArrow=none;html=1;rounded=0;fillColor=#ffe6cc;strokeColor=#d79b00;strokeWidth=4;startArrow=none;startFill=0;endFill=0;" parent="1" edge="1">
                    <mxGeometry width="50" height="50" relative="1" as="geometry">
                        <mxPoint x="520" y="540.13" as="sourcePoint"/>
                        <mxPoint x="400" y="539.7" as="targetPoint"/>
                    </mxGeometry>
                </mxCell>
                <mxCell id="EHqpeQSWTMFwKQJ2zAnR-217" value="RS485" style="edgeLabel;html=1;align=center;verticalAlign=middle;resizable=0;points=[];" parent="EHqpeQSWTMFwKQJ2zAnR-198" vertex="1" connectable="0">
                    <mxGeometry x="-0.0667" y="1" relative="1" as="geometry">
                        <mxPoint x="-4" y="-1" as="offset"/>
                    </mxGeometry>
                </mxCell>
                <mxCell id="EHqpeQSWTMFwKQJ2zAnR-200" value="14P DF51A" style="rounded=0;whiteSpace=wrap;html=1;" parent="1" vertex="1">
                    <mxGeometry x="320" y="920" width="80" height="290" as="geometry"/>
                </mxCell>
                <mxCell id="EHqpeQSWTMFwKQJ2zAnR-226" value="" style="endArrow=none;html=1;rounded=0;fillColor=#dae8fc;strokeColor=#6c8ebf;strokeWidth=4;startArrow=none;startFill=0;endFill=0;" parent="1" edge="1">
                    <mxGeometry width="50" height="50" relative="1" as="geometry">
                        <mxPoint x="550" y="560" as="sourcePoint"/>
                        <mxPoint x="640" y="930" as="targetPoint"/>
                        <Array as="points">
                            <mxPoint x="550" y="930"/>
                        </Array>
                    </mxGeometry>
                </mxCell>
                <mxCell id="EHqpeQSWTMFwKQJ2zAnR-228" value="ATMEGA 2560" style="rounded=0;whiteSpace=wrap;html=1;movable=1;resizable=1;rotatable=1;deletable=1;editable=1;locked=0;connectable=1;" parent="1" vertex="1">
                    <mxGeometry x="640" y="720" width="280" height="1160" as="geometry"/>
                </mxCell>
                <mxCell id="EHqpeQSWTMFwKQJ2zAnR-230" value="電力モニタ" style="rounded=0;whiteSpace=wrap;html=1;" parent="1" vertex="1">
                    <mxGeometry x="900" y="480" width="80" height="40" as="geometry"/>
                </mxCell>
                <mxCell id="EHqpeQSWTMFwKQJ2zAnR-231" value="" style="endArrow=none;html=1;rounded=0;fillColor=#d5e8d4;strokeColor=#82b366;strokeWidth=4;endFill=0;targetPerimeterSpacing=0;shadow=0;startArrow=block;startFill=1;" parent="1" edge="1">
                    <mxGeometry width="50" height="50" relative="1" as="geometry">
                        <mxPoint x="640" y="500" as="sourcePoint"/>
                        <mxPoint x="680" y="499.78" as="targetPoint"/>
                    </mxGeometry>
                </mxCell>
                <mxCell id="EHqpeQSWTMFwKQJ2zAnR-232" value="DC5V" style="edgeLabel;html=1;align=center;verticalAlign=middle;resizable=0;points=[];" parent="EHqpeQSWTMFwKQJ2zAnR-231" vertex="1" connectable="0">
                    <mxGeometry x="-0.2607" y="1" relative="1" as="geometry">
                        <mxPoint x="-35" y="1" as="offset"/>
                    </mxGeometry>
                </mxCell>
                <mxCell id="EHqpeQSWTMFwKQJ2zAnR-235" value="" style="endArrow=none;html=1;rounded=0;fillColor=#f8cecc;strokeColor=#b85450;strokeWidth=4;startArrow=none;startFill=0;endFill=0;" parent="1" edge="1">
                    <mxGeometry width="50" height="50" relative="1" as="geometry">
                        <mxPoint x="800" y="720" as="sourcePoint"/>
                        <mxPoint x="800" y="600" as="targetPoint"/>
                        <Array as="points">
                            <mxPoint x="800" y="680"/>
                        </Array>
                    </mxGeometry>
                </mxCell>
                <mxCell id="EHqpeQSWTMFwKQJ2zAnR-244" value="c" style="endArrow=none;html=1;rounded=0;fillColor=#ffe6cc;strokeColor=#d79b00;strokeWidth=4;startArrow=none;startFill=0;endFill=0;" parent="1" edge="1">
                    <mxGeometry width="50" height="50" relative="1" as="geometry">
                        <mxPoint x="560" y="810" as="sourcePoint"/>
                        <mxPoint x="640" y="810" as="targetPoint"/>
                    </mxGeometry>
                </mxCell>
                <mxCell id="EHqpeQSWTMFwKQJ2zAnR-245" value="UART" style="edgeLabel;html=1;align=center;verticalAlign=middle;resizable=0;points=[];" parent="EHqpeQSWTMFwKQJ2zAnR-244" vertex="1" connectable="0">
                    <mxGeometry x="-0.0036" relative="1" as="geometry">
                        <mxPoint as="offset"/>
                    </mxGeometry>
                </mxCell>
                <mxCell id="EHqpeQSWTMFwKQJ2zAnR-246" value="UART0" style="rounded=0;whiteSpace=wrap;html=1;" parent="1" vertex="1">
                    <mxGeometry x="640" y="800" width="80" height="20" as="geometry"/>
                </mxCell>
                <mxCell id="EHqpeQSWTMFwKQJ2zAnR-247" value="" style="endArrow=none;html=1;rounded=0;fillColor=#d5e8d4;strokeColor=#82b366;strokeWidth=4;endFill=0;targetPerimeterSpacing=0;shadow=0;" parent="1" edge="1">
                    <mxGeometry width="50" height="50" relative="1" as="geometry">
                        <mxPoint x="400" y="890" as="sourcePoint"/>
                        <mxPoint x="480" y="890" as="targetPoint"/>
                        <Array as="points">
                            <mxPoint x="440" y="890"/>
                        </Array>
                    </mxGeometry>
                </mxCell>
                <mxCell id="EHqpeQSWTMFwKQJ2zAnR-249" value="" style="endArrow=none;html=1;rounded=0;fillColor=#d5e8d4;strokeColor=#82b366;strokeWidth=4;endFill=0;targetPerimeterSpacing=0;shadow=0;" parent="1" edge="1">
                    <mxGeometry width="50" height="50" relative="1" as="geometry">
                        <mxPoint x="400" y="830" as="sourcePoint"/>
                        <mxPoint x="440" y="890" as="targetPoint"/>
                        <Array as="points">
                            <mxPoint x="440" y="830"/>
                        </Array>
                    </mxGeometry>
                </mxCell>
                <mxCell id="EHqpeQSWTMFwKQJ2zAnR-239" value="" style="endArrow=none;html=1;rounded=0;fillColor=#ffe6cc;strokeColor=#d79b00;strokeWidth=4;startArrow=none;startFill=0;endFill=0;" parent="1" edge="1">
                    <mxGeometry width="50" height="50" relative="1" as="geometry">
                        <mxPoint x="480" y="810.4300000000001" as="sourcePoint"/>
                        <mxPoint x="400" y="810" as="targetPoint"/>
                    </mxGeometry>
                </mxCell>
                <mxCell id="EHqpeQSWTMFwKQJ2zAnR-241" value="" style="endArrow=none;html=1;rounded=0;fillColor=#ffe6cc;strokeColor=#d79b00;strokeWidth=4;startArrow=none;startFill=0;endFill=0;" parent="1" edge="1">
                    <mxGeometry width="50" height="50" relative="1" as="geometry">
                        <mxPoint x="460" y="810" as="sourcePoint"/>
                        <mxPoint x="400" y="869.7" as="targetPoint"/>
                        <Array as="points">
                            <mxPoint x="460" y="870"/>
                        </Array>
                    </mxGeometry>
                </mxCell>
                <mxCell id="EHqpeQSWTMFwKQJ2zAnR-243" value="USB" style="edgeLabel;html=1;align=center;verticalAlign=middle;resizable=0;points=[];" parent="EHqpeQSWTMFwKQJ2zAnR-241" vertex="1" connectable="0">
                    <mxGeometry x="-0.6144" y="1" relative="1" as="geometry">
                        <mxPoint y="5" as="offset"/>
                    </mxGeometry>
                </mxCell>
                <mxCell id="EHqpeQSWTMFwKQJ2zAnR-204" value="USB Micro-B" style="rounded=0;whiteSpace=wrap;html=1;" parent="1" vertex="1">
                    <mxGeometry x="320" y="800" width="80" height="40" as="geometry"/>
                </mxCell>
                <mxCell id="EHqpeQSWTMFwKQJ2zAnR-203" value="6P DF51A" style="rounded=0;whiteSpace=wrap;html=1;" parent="1" vertex="1">
                    <mxGeometry x="320" y="860" width="80" height="40" as="geometry"/>
                </mxCell>
                <mxCell id="EHqpeQSWTMFwKQJ2zAnR-251" value="UART1" style="rounded=0;whiteSpace=wrap;html=1;" parent="1" vertex="1">
                    <mxGeometry x="640" y="770" width="80" height="20" as="geometry"/>
                </mxCell>
                <mxCell id="EHqpeQSWTMFwKQJ2zAnR-252" value="" style="endArrow=none;html=1;rounded=0;fillColor=#ffe6cc;strokeColor=#d79b00;strokeWidth=4;startArrow=none;startFill=0;endFill=0;" parent="1" edge="1">
                    <mxGeometry width="50" height="50" relative="1" as="geometry">
                        <mxPoint x="570" y="560" as="sourcePoint"/>
                        <mxPoint x="640" y="780" as="targetPoint"/>
                        <Array as="points">
                            <mxPoint x="570" y="780"/>
                        </Array>
                    </mxGeometry>
                </mxCell>
                <mxCell id="EHqpeQSWTMFwKQJ2zAnR-253" value="UART" style="edgeLabel;html=1;align=center;verticalAlign=middle;resizable=0;points=[];" parent="EHqpeQSWTMFwKQJ2zAnR-252" vertex="1" connectable="0">
                    <mxGeometry x="-0.0036" relative="1" as="geometry">
                        <mxPoint y="-104" as="offset"/>
                    </mxGeometry>
                </mxCell>
                <mxCell id="EHqpeQSWTMFwKQJ2zAnR-255" value="I2C" style="rounded=0;whiteSpace=wrap;html=1;" parent="1" vertex="1">
                    <mxGeometry x="840" y="740" width="80" height="20" as="geometry"/>
                </mxCell>
                <mxCell id="EHqpeQSWTMFwKQJ2zAnR-258" value="ADC" style="rounded=0;whiteSpace=wrap;html=1;" parent="1" vertex="1">
                    <mxGeometry x="740" y="720" width="80" height="20" as="geometry"/>
                </mxCell>
                <mxCell id="EHqpeQSWTMFwKQJ2zAnR-259" value="GPIO" style="rounded=0;whiteSpace=wrap;html=1;" parent="1" vertex="1">
                    <mxGeometry x="640" y="920" width="80" height="960" as="geometry"/>
                </mxCell>
                <mxCell id="EHqpeQSWTMFwKQJ2zAnR-263" value="SPI" style="rounded=0;whiteSpace=wrap;html=1;" parent="1" vertex="1">
                    <mxGeometry x="840" y="770" width="80" height="20" as="geometry"/>
                </mxCell>
                <mxCell id="EHqpeQSWTMFwKQJ2zAnR-264" value="" style="endArrow=none;html=1;rounded=0;fillColor=#ffe6cc;strokeColor=#d79b00;strokeWidth=4;endFill=0;targetPerimeterSpacing=0;shadow=0;" parent="1" edge="1">
                    <mxGeometry width="50" height="50" relative="1" as="geometry">
                        <mxPoint x="920" y="779.64" as="sourcePoint"/>
                        <mxPoint x="1060" y="780" as="targetPoint"/>
                    </mxGeometry>
                </mxCell>
                <mxCell id="EHqpeQSWTMFwKQJ2zAnR-265" value="SPI" style="edgeLabel;html=1;align=center;verticalAlign=middle;resizable=0;points=[];" parent="EHqpeQSWTMFwKQJ2zAnR-264" vertex="1" connectable="0">
                    <mxGeometry x="-0.0033" relative="1" as="geometry">
                        <mxPoint as="offset"/>
                    </mxGeometry>
                </mxCell>
                <mxCell id="EHqpeQSWTMFwKQJ2zAnR-268" value="" style="endArrow=block;html=1;rounded=0;fillColor=#d5e8d4;strokeColor=#82b366;strokeWidth=4;endFill=1;targetPerimeterSpacing=0;shadow=0;" parent="1" edge="1">
                    <mxGeometry width="50" height="50" relative="1" as="geometry">
                        <mxPoint x="560" y="889.9200000000001" as="sourcePoint"/>
                        <mxPoint x="600" y="890" as="targetPoint"/>
                        <Array as="points"/>
                    </mxGeometry>
                </mxCell>
                <mxCell id="EHqpeQSWTMFwKQJ2zAnR-270" value="DC5V" style="edgeLabel;html=1;align=center;verticalAlign=middle;resizable=0;points=[];" parent="EHqpeQSWTMFwKQJ2zAnR-268" vertex="1" connectable="0">
                    <mxGeometry x="0.3399" relative="1" as="geometry">
                        <mxPoint x="33" as="offset"/>
                    </mxGeometry>
                </mxCell>
                <mxCell id="EHqpeQSWTMFwKQJ2zAnR-280" value="" style="endArrow=none;html=1;rounded=0;fillColor=#dae8fc;strokeColor=#6c8ebf;strokeWidth=4;startArrow=block;startFill=1;endFill=0;" parent="1" edge="1">
                    <mxGeometry width="50" height="50" relative="1" as="geometry">
                        <mxPoint x="440" y="930" as="sourcePoint"/>
                        <mxPoint x="400" y="929.81" as="targetPoint"/>
                    </mxGeometry>
                </mxCell>
                <mxCell id="EHqpeQSWTMFwKQJ2zAnR-281" value="RESET" style="edgeLabel;html=1;align=center;verticalAlign=middle;resizable=0;points=[];" parent="EHqpeQSWTMFwKQJ2zAnR-280" vertex="1" connectable="0">
                    <mxGeometry x="0.1808" relative="1" as="geometry">
                        <mxPoint x="43" as="offset"/>
                    </mxGeometry>
                </mxCell>
                <mxCell id="EHqpeQSWTMFwKQJ2zAnR-282" value="" style="endArrow=none;html=1;rounded=0;fillColor=#dae8fc;strokeColor=#6c8ebf;strokeWidth=4;startArrow=block;startFill=1;endFill=0;" parent="1" edge="1">
                    <mxGeometry width="50" height="50" relative="1" as="geometry">
                        <mxPoint x="1020" y="800.27" as="sourcePoint"/>
                        <mxPoint x="1060" y="800" as="targetPoint"/>
                    </mxGeometry>
                </mxCell>
                <mxCell id="EHqpeQSWTMFwKQJ2zAnR-283" value="RESET" style="edgeLabel;html=1;align=center;verticalAlign=middle;resizable=0;points=[];" parent="EHqpeQSWTMFwKQJ2zAnR-282" vertex="1" connectable="0">
                    <mxGeometry x="0.1808" relative="1" as="geometry">
                        <mxPoint x="-44" as="offset"/>
                    </mxGeometry>
                </mxCell>
                <mxCell id="EHqpeQSWTMFwKQJ2zAnR-262" value="ICSP" style="rounded=0;whiteSpace=wrap;html=1;" parent="1" vertex="1">
                    <mxGeometry x="1060" y="770" width="80" height="40" as="geometry"/>
                </mxCell>
                <mxCell id="EHqpeQSWTMFwKQJ2zAnR-285" value="" style="endArrow=none;html=1;rounded=0;fillColor=#dae8fc;strokeColor=#6c8ebf;strokeWidth=4;startArrow=block;startFill=1;endFill=0;" parent="1" edge="1">
                    <mxGeometry width="50" height="50" relative="1" as="geometry">
                        <mxPoint x="600" y="830.19" as="sourcePoint"/>
                        <mxPoint x="560" y="830" as="targetPoint"/>
                    </mxGeometry>
                </mxCell>
                <mxCell id="EHqpeQSWTMFwKQJ2zAnR-286" value="RESET" style="edgeLabel;html=1;align=center;verticalAlign=middle;resizable=0;points=[];" parent="EHqpeQSWTMFwKQJ2zAnR-285" vertex="1" connectable="0">
                    <mxGeometry x="0.1808" relative="1" as="geometry">
                        <mxPoint x="43" as="offset"/>
                    </mxGeometry>
                </mxCell>
                <mxCell id="EHqpeQSWTMFwKQJ2zAnR-229" value="FT232RL" style="rounded=0;whiteSpace=wrap;html=1;opacity=70;" parent="1" vertex="1">
                    <mxGeometry x="480" y="800" width="80" height="40" as="geometry"/>
                </mxCell>
                <mxCell id="EHqpeQSWTMFwKQJ2zAnR-287" value="" style="endArrow=none;html=1;rounded=0;fillColor=#d5e8d4;strokeColor=#82b366;strokeWidth=4;endFill=0;targetPerimeterSpacing=0;shadow=0;startArrow=block;startFill=1;" parent="1" edge="1">
                    <mxGeometry width="50" height="50" relative="1" as="geometry">
                        <mxPoint x="810" y="540" as="sourcePoint"/>
                        <mxPoint x="850" y="500" as="targetPoint"/>
                        <Array as="points">
                            <mxPoint x="850" y="540"/>
                        </Array>
                    </mxGeometry>
                </mxCell>
                <mxCell id="EHqpeQSWTMFwKQJ2zAnR-288" value="DC12V" style="edgeLabel;html=1;align=center;verticalAlign=middle;resizable=0;points=[];" parent="EHqpeQSWTMFwKQJ2zAnR-287" vertex="1" connectable="0">
                    <mxGeometry x="-0.2607" y="1" relative="1" as="geometry">
                        <mxPoint x="-50" y="1" as="offset"/>
                    </mxGeometry>
                </mxCell>
                <mxCell id="EHqpeQSWTMFwKQJ2zAnR-290" value="" style="endArrow=none;html=1;rounded=0;fillColor=#d5e8d4;strokeColor=#82b366;strokeWidth=4;endFill=0;targetPerimeterSpacing=0;shadow=0;startArrow=block;startFill=1;" parent="1" edge="1">
                    <mxGeometry width="50" height="50" relative="1" as="geometry">
                        <mxPoint x="480" y="500" as="sourcePoint"/>
                        <mxPoint x="440" y="460" as="targetPoint"/>
                        <Array as="points">
                            <mxPoint x="440" y="500"/>
                        </Array>
                    </mxGeometry>
                </mxCell>
                <mxCell id="EHqpeQSWTMFwKQJ2zAnR-291" value="DC12V" style="edgeLabel;html=1;align=center;verticalAlign=middle;resizable=0;points=[];" parent="EHqpeQSWTMFwKQJ2zAnR-290" vertex="1" connectable="0">
                    <mxGeometry x="-0.2607" y="1" relative="1" as="geometry">
                        <mxPoint x="50" y="-1" as="offset"/>
                    </mxGeometry>
                </mxCell>
                <mxCell id="EHqpeQSWTMFwKQJ2zAnR-292" value="" style="endArrow=block;html=1;rounded=0;fillColor=#d5e8d4;strokeColor=#82b366;strokeWidth=4;endFill=1;targetPerimeterSpacing=0;shadow=0;" parent="1" edge="1">
                    <mxGeometry width="50" height="50" relative="1" as="geometry">
                        <mxPoint x="440" y="959.85" as="sourcePoint"/>
                        <mxPoint x="400" y="960" as="targetPoint"/>
                        <Array as="points"/>
                    </mxGeometry>
                </mxCell>
                <mxCell id="EHqpeQSWTMFwKQJ2zAnR-293" value="DC12V" style="edgeLabel;html=1;align=center;verticalAlign=middle;resizable=0;points=[];" parent="EHqpeQSWTMFwKQJ2zAnR-292" vertex="1" connectable="0">
                    <mxGeometry x="0.3399" relative="1" as="geometry">
                        <mxPoint x="47" as="offset"/>
                    </mxGeometry>
                </mxCell>
                <mxCell id="EHqpeQSWTMFwKQJ2zAnR-294" value="" style="endArrow=block;html=1;rounded=0;fillColor=#d5e8d4;strokeColor=#82b366;strokeWidth=4;endFill=1;targetPerimeterSpacing=0;shadow=0;" parent="1" edge="1">
                    <mxGeometry width="50" height="50" relative="1" as="geometry">
                        <mxPoint x="440" y="989.74" as="sourcePoint"/>
                        <mxPoint x="400" y="989.89" as="targetPoint"/>
                        <Array as="points"/>
                    </mxGeometry>
                </mxCell>
                <mxCell id="EHqpeQSWTMFwKQJ2zAnR-295" value="DC12V" style="edgeLabel;html=1;align=center;verticalAlign=middle;resizable=0;points=[];" parent="EHqpeQSWTMFwKQJ2zAnR-294" vertex="1" connectable="0">
                    <mxGeometry x="0.3399" relative="1" as="geometry">
                        <mxPoint x="47" as="offset"/>
                    </mxGeometry>
                </mxCell>
                <mxCell id="EHqpeQSWTMFwKQJ2zAnR-296" value="" style="endArrow=block;html=1;rounded=0;fillColor=#d5e8d4;strokeColor=#82b366;strokeWidth=4;endFill=1;targetPerimeterSpacing=0;shadow=0;" parent="1" edge="1">
                    <mxGeometry width="50" height="50" relative="1" as="geometry">
                        <mxPoint x="440" y="1019.74" as="sourcePoint"/>
                        <mxPoint x="400" y="1019.89" as="targetPoint"/>
                        <Array as="points"/>
                    </mxGeometry>
                </mxCell>
                <mxCell id="EHqpeQSWTMFwKQJ2zAnR-297" value="DC5V" style="edgeLabel;html=1;align=center;verticalAlign=middle;resizable=0;points=[];" parent="EHqpeQSWTMFwKQJ2zAnR-296" vertex="1" connectable="0">
                    <mxGeometry x="0.3399" relative="1" as="geometry">
                        <mxPoint x="47" as="offset"/>
                    </mxGeometry>
                </mxCell>
                <mxCell id="EHqpeQSWTMFwKQJ2zAnR-298" value="" style="endArrow=none;html=1;rounded=0;fillColor=#dae8fc;strokeColor=#6c8ebf;strokeWidth=4;startArrow=none;startFill=0;endFill=0;" parent="1" edge="1">
                    <mxGeometry width="50" height="50" relative="1" as="geometry">
                        <mxPoint x="640" y="1049.68" as="sourcePoint"/>
                        <mxPoint x="400" y="1049.68" as="targetPoint"/>
                    </mxGeometry>
                </mxCell>
                <mxCell id="EHqpeQSWTMFwKQJ2zAnR-299" value="" style="endArrow=none;html=1;rounded=0;fillColor=#dae8fc;strokeColor=#6c8ebf;strokeWidth=4;startArrow=none;startFill=0;endFill=0;" parent="1" edge="1">
                    <mxGeometry width="50" height="50" relative="1" as="geometry">
                        <mxPoint x="640" y="1079.68" as="sourcePoint"/>
                        <mxPoint x="400" y="1079.68" as="targetPoint"/>
                    </mxGeometry>
                </mxCell>
                <mxCell id="EHqpeQSWTMFwKQJ2zAnR-300" value="" style="endArrow=none;html=1;rounded=0;fillColor=#dae8fc;strokeColor=#6c8ebf;strokeWidth=4;startArrow=none;startFill=0;endFill=0;" parent="1" edge="1">
                    <mxGeometry width="50" height="50" relative="1" as="geometry">
                        <mxPoint x="640" y="1109.68" as="sourcePoint"/>
                        <mxPoint x="400" y="1109.68" as="targetPoint"/>
                    </mxGeometry>
                </mxCell>
                <mxCell id="EHqpeQSWTMFwKQJ2zAnR-301" value="" style="endArrow=none;html=1;rounded=0;fillColor=#dae8fc;strokeColor=#6c8ebf;strokeWidth=4;startArrow=none;startFill=0;endFill=0;" parent="1" edge="1">
                    <mxGeometry width="50" height="50" relative="1" as="geometry">
                        <mxPoint x="640" y="1139.68" as="sourcePoint"/>
                        <mxPoint x="400" y="1139.68" as="targetPoint"/>
                    </mxGeometry>
                </mxCell>
                <mxCell id="EHqpeQSWTMFwKQJ2zAnR-303" value="" style="endArrow=none;html=1;rounded=0;fillColor=#dae8fc;strokeColor=#6c8ebf;strokeWidth=4;startArrow=none;startFill=0;endFill=0;" parent="1" edge="1">
                    <mxGeometry width="50" height="50" relative="1" as="geometry">
                        <mxPoint x="640" y="1199.68" as="sourcePoint"/>
                        <mxPoint x="400" y="1199.68" as="targetPoint"/>
                    </mxGeometry>
                </mxCell>
                <mxCell id="EHqpeQSWTMFwKQJ2zAnR-304" value="" style="endArrow=none;html=1;rounded=0;fillColor=#dae8fc;strokeColor=#6c8ebf;strokeWidth=4;startArrow=none;startFill=0;endFill=0;" parent="1" edge="1">
                    <mxGeometry width="50" height="50" relative="1" as="geometry">
                        <mxPoint x="400" y="1170" as="sourcePoint"/>
                        <mxPoint x="520" y="840" as="targetPoint"/>
                        <Array as="points">
                            <mxPoint x="520" y="1170"/>
                        </Array>
                    </mxGeometry>
                </mxCell>
                <mxCell id="EHqpeQSWTMFwKQJ2zAnR-309" value="" style="endArrow=none;html=1;rounded=0;fillColor=#dae8fc;strokeColor=#6c8ebf;strokeWidth=4;startArrow=none;startFill=0;endFill=0;" parent="1" edge="1">
                    <mxGeometry width="50" height="50" relative="1" as="geometry">
                        <mxPoint x="641.05" y="1339.5800000000002" as="sourcePoint"/>
                        <mxPoint x="401.05" y="1339.5800000000002" as="targetPoint"/>
                    </mxGeometry>
                </mxCell>
                <mxCell id="EHqpeQSWTMFwKQJ2zAnR-311" value="" style="endArrow=none;html=1;rounded=0;fillColor=#dae8fc;strokeColor=#6c8ebf;strokeWidth=4;startArrow=none;startFill=0;endFill=0;" parent="1" edge="1">
                    <mxGeometry width="50" height="50" relative="1" as="geometry">
                        <mxPoint x="641.05" y="1369.5800000000002" as="sourcePoint"/>
                        <mxPoint x="401.05" y="1369.5800000000002" as="targetPoint"/>
                    </mxGeometry>
                </mxCell>
                <mxCell id="EHqpeQSWTMFwKQJ2zAnR-312" value="" style="endArrow=none;html=1;rounded=0;fillColor=#dae8fc;strokeColor=#6c8ebf;strokeWidth=4;startArrow=none;startFill=0;endFill=0;" parent="1" edge="1">
                    <mxGeometry width="50" height="50" relative="1" as="geometry">
                        <mxPoint x="641.05" y="1400.0000000000002" as="sourcePoint"/>
                        <mxPoint x="401.05" y="1400.0000000000002" as="targetPoint"/>
                    </mxGeometry>
                </mxCell>
                <mxCell id="EHqpeQSWTMFwKQJ2zAnR-313" value="" style="endArrow=none;html=1;rounded=0;fillColor=#dae8fc;strokeColor=#6c8ebf;strokeWidth=4;startArrow=none;startFill=0;endFill=0;" parent="1" edge="1">
                    <mxGeometry width="50" height="50" relative="1" as="geometry">
                        <mxPoint x="641.05" y="1430.0000000000002" as="sourcePoint"/>
                        <mxPoint x="401.05" y="1430.0000000000002" as="targetPoint"/>
                    </mxGeometry>
                </mxCell>
                <mxCell id="EHqpeQSWTMFwKQJ2zAnR-260" value="GPIO" style="rounded=0;whiteSpace=wrap;html=1;" parent="1" vertex="1">
                    <mxGeometry x="840" y="920" width="80" height="960" as="geometry"/>
                </mxCell>
                <mxCell id="EHqpeQSWTMFwKQJ2zAnR-354" value="" style="endArrow=none;html=1;rounded=0;fillColor=#d5e8d4;strokeColor=#82b366;strokeWidth=4;endFill=0;targetPerimeterSpacing=0;shadow=0;" parent="1" edge="1">
                    <mxGeometry width="50" height="50" relative="1" as="geometry">
                        <mxPoint x="-79.3" y="260" as="sourcePoint"/>
                        <mxPoint x="-19.3" y="260" as="targetPoint"/>
                    </mxGeometry>
                </mxCell>
                <mxCell id="EHqpeQSWTMFwKQJ2zAnR-356" value="電源" style="text;html=1;strokeColor=none;fillColor=none;align=left;verticalAlign=middle;whiteSpace=wrap;rounded=0;fontSize=12;fontFamily=Helvetica;fontColor=default;" parent="1" vertex="1">
                    <mxGeometry x="6.661338147750939e-16" y="250" width="60" height="20" as="geometry"/>
                </mxCell>
                <mxCell id="EHqpeQSWTMFwKQJ2zAnR-266" value="FUSE" style="rounded=0;whiteSpace=wrap;html=1;opacity=70;" parent="1" vertex="1">
                    <mxGeometry x="480" y="880" width="80" height="20" as="geometry"/>
                </mxCell>
                <mxCell id="EHqpeQSWTMFwKQJ2zAnR-357" value="" style="endArrow=none;html=1;rounded=0;fillColor=#f8cecc;strokeColor=#b85450;strokeWidth=4;endFill=0;targetPerimeterSpacing=0;shadow=0;" parent="1" edge="1">
                    <mxGeometry width="50" height="50" relative="1" as="geometry">
                        <mxPoint x="-80" y="280" as="sourcePoint"/>
                        <mxPoint x="-20" y="280" as="targetPoint"/>
                    </mxGeometry>
                </mxCell>
                <mxCell id="EHqpeQSWTMFwKQJ2zAnR-358" value="アナログ" style="text;html=1;strokeColor=none;fillColor=none;align=left;verticalAlign=middle;whiteSpace=wrap;rounded=0;fontSize=12;fontFamily=Helvetica;fontColor=default;" parent="1" vertex="1">
                    <mxGeometry x="1.0500000000000014" y="270" width="60" height="20" as="geometry"/>
                </mxCell>
                <mxCell id="EHqpeQSWTMFwKQJ2zAnR-359" value="" style="endArrow=none;html=1;rounded=0;fillColor=#dae8fc;strokeColor=#6c8ebf;strokeWidth=4;endFill=0;targetPerimeterSpacing=0;shadow=0;" parent="1" edge="1">
                    <mxGeometry width="50" height="50" relative="1" as="geometry">
                        <mxPoint x="-80" y="300" as="sourcePoint"/>
                        <mxPoint x="-20" y="300" as="targetPoint"/>
                    </mxGeometry>
                </mxCell>
                <mxCell id="EHqpeQSWTMFwKQJ2zAnR-360" value="デジタル（信号）" style="text;html=1;strokeColor=none;fillColor=none;align=left;verticalAlign=middle;whiteSpace=wrap;rounded=0;fontSize=12;fontFamily=Helvetica;fontColor=default;" parent="1" vertex="1">
                    <mxGeometry y="290" width="120.7" height="20" as="geometry"/>
                </mxCell>
                <mxCell id="EHqpeQSWTMFwKQJ2zAnR-361" value="" style="endArrow=none;html=1;rounded=0;fillColor=#ffe6cc;strokeColor=#d79b00;strokeWidth=4;endFill=0;targetPerimeterSpacing=0;shadow=0;" parent="1" edge="1">
                    <mxGeometry width="50" height="50" relative="1" as="geometry">
                        <mxPoint x="-80" y="320" as="sourcePoint"/>
                        <mxPoint x="-20" y="320" as="targetPoint"/>
                    </mxGeometry>
                </mxCell>
                <mxCell id="EHqpeQSWTMFwKQJ2zAnR-362" value="デジタル（通信）" style="text;html=1;strokeColor=none;fillColor=none;align=left;verticalAlign=middle;whiteSpace=wrap;rounded=0;fontSize=12;fontFamily=Helvetica;fontColor=default;" parent="1" vertex="1">
                    <mxGeometry x="0.7" y="310" width="120.7" height="20" as="geometry"/>
                </mxCell>
                <mxCell id="80xBdCF-kYbZM-QKRMuW-2" value="N2O圧力センサ&lt;br&gt;4P なんか" style="rounded=0;whiteSpace=wrap;html=1;" parent="1" vertex="1">
                    <mxGeometry x="-99.65000000000002" y="610" width="180" height="40" as="geometry"/>
                </mxCell>
                <mxCell id="80xBdCF-kYbZM-QKRMuW-3" value="" style="endArrow=none;html=1;rounded=0;fillColor=#f8cecc;strokeColor=#b85450;strokeWidth=4;startArrow=none;startFill=0;endFill=0;" parent="1" edge="1">
                    <mxGeometry width="50" height="50" relative="1" as="geometry">
                        <mxPoint x="760" y="720" as="sourcePoint"/>
                        <mxPoint x="400" y="630" as="targetPoint"/>
                        <Array as="points">
                            <mxPoint x="760" y="680"/>
                            <mxPoint x="760" y="630"/>
                        </Array>
                    </mxGeometry>
                </mxCell>
                <mxCell id="80xBdCF-kYbZM-QKRMuW-4" value="4P Push-In" style="rounded=0;whiteSpace=wrap;html=1;" parent="1" vertex="1">
                    <mxGeometry x="320" y="620" width="80" height="20" as="geometry"/>
                </mxCell>
                <mxCell id="EHqpeQSWTMFwKQJ2zAnR-233" value="温度モニタ" style="rounded=0;whiteSpace=wrap;html=1;" parent="1" vertex="1">
                    <mxGeometry x="760" y="560" width="80" height="40" as="geometry"/>
                </mxCell>
                <mxCell id="80xBdCF-kYbZM-QKRMuW-6" value="" style="endArrow=block;html=1;rounded=0;fillColor=#f8cecc;strokeColor=#b85450;strokeWidth=4;endFill=1;targetPerimeterSpacing=0;shadow=0;" parent="1" edge="1">
                    <mxGeometry width="50" height="50" relative="1" as="geometry">
                        <mxPoint x="79.3" y="629.64" as="sourcePoint"/>
                        <mxPoint x="319.3" y="629.64" as="targetPoint"/>
                    </mxGeometry>
                </mxCell>
                <mxCell id="EHqpeQSWTMFwKQJ2zAnR-2" value="" style="endArrow=none;html=1;rounded=0;strokeWidth=4;" parent="1" edge="1">
                    <mxGeometry width="50" height="50" relative="1" as="geometry">
                        <mxPoint x="80" y="690" as="sourcePoint"/>
                        <mxPoint x="80" y="400" as="targetPoint"/>
                    </mxGeometry>
                </mxCell>
                <mxCell id="80xBdCF-kYbZM-QKRMuW-9" value="メインパネル（出）" style="text;html=1;strokeColor=none;fillColor=none;align=right;verticalAlign=middle;whiteSpace=wrap;rounded=0;fontSize=24;" parent="1" vertex="1">
                    <mxGeometry x="-158.95000000000002" y="1505" width="220" height="30" as="geometry"/>
                </mxCell>
                <mxCell id="80xBdCF-kYbZM-QKRMuW-10" value="POWER&amp;nbsp; LED" style="rounded=0;whiteSpace=wrap;html=1;" parent="1" vertex="1">
                    <mxGeometry x="-40.350000000000044" y="1560" width="120" height="20" as="geometry"/>
                </mxCell>
                <mxCell id="80xBdCF-kYbZM-QKRMuW-11" value="SEFTY LED" style="rounded=0;whiteSpace=wrap;html=1;" parent="1" vertex="1">
                    <mxGeometry x="-40.350000000000044" y="1590" width="120" height="20" as="geometry"/>
                </mxCell>
                <mxCell id="80xBdCF-kYbZM-QKRMuW-12" value="&lt;strike&gt;&lt;font color=&quot;#b3b3b3&quot;&gt;SHIFT LED&lt;/font&gt;&lt;/strike&gt;" style="rounded=0;whiteSpace=wrap;html=1;strokeColor=#B3B3B3;" parent="1" vertex="1">
                    <mxGeometry x="-38.950000000000045" y="1620" width="120" height="20" as="geometry"/>
                </mxCell>
                <mxCell id="80xBdCF-kYbZM-QKRMuW-13" value="FILL LED" style="rounded=0;whiteSpace=wrap;html=1;" parent="1" vertex="1">
                    <mxGeometry x="-38.950000000000045" y="1650" width="120" height="20" as="geometry"/>
                </mxCell>
                <mxCell id="80xBdCF-kYbZM-QKRMuW-14" value="DUMP LED" style="rounded=0;whiteSpace=wrap;html=1;" parent="1" vertex="1">
                    <mxGeometry x="-38.950000000000045" y="1680" width="120" height="20" as="geometry"/>
                </mxCell>
                <mxCell id="80xBdCF-kYbZM-QKRMuW-15" value="O2 LED" style="rounded=0;whiteSpace=wrap;html=1;" parent="1" vertex="1">
                    <mxGeometry x="-38.950000000000045" y="1710" width="120" height="20" as="geometry"/>
                </mxCell>
                <mxCell id="80xBdCF-kYbZM-QKRMuW-16" value="IGN LED" style="rounded=0;whiteSpace=wrap;html=1;" parent="1" vertex="1">
                    <mxGeometry x="-38.950000000000045" y="1740" width="120" height="20" as="geometry"/>
                </mxCell>
                <mxCell id="80xBdCF-kYbZM-QKRMuW-17" value="OPEN LED" style="rounded=0;whiteSpace=wrap;html=1;" parent="1" vertex="1">
                    <mxGeometry x="-38.950000000000045" y="1770" width="120" height="20" as="geometry"/>
                </mxCell>
                <mxCell id="80xBdCF-kYbZM-QKRMuW-18" value="CLOSE LED" style="rounded=0;whiteSpace=wrap;html=1;" parent="1" vertex="1">
                    <mxGeometry x="-38.950000000000045" y="1800" width="120" height="20" as="geometry"/>
                </mxCell>
                <mxCell id="80xBdCF-kYbZM-QKRMuW-19" value="PURGE LED" style="rounded=0;whiteSpace=wrap;html=1;" parent="1" vertex="1">
                    <mxGeometry x="-38.950000000000045" y="1830" width="120" height="20" as="geometry"/>
                </mxCell>
                <mxCell id="80xBdCF-kYbZM-QKRMuW-20" value="" style="endArrow=none;html=1;rounded=0;fillColor=#dae8fc;strokeColor=#6c8ebf;strokeWidth=4;startArrow=block;startFill=1;endFill=0;" parent="1" edge="1">
                    <mxGeometry width="50" height="50" relative="1" as="geometry">
                        <mxPoint x="321.40000000000003" y="1570" as="sourcePoint"/>
                        <mxPoint x="81.39999999999999" y="1570" as="targetPoint"/>
                    </mxGeometry>
                </mxCell>
                <mxCell id="80xBdCF-kYbZM-QKRMuW-21" value="" style="endArrow=none;html=1;rounded=0;fillColor=#dae8fc;strokeColor=#6c8ebf;strokeWidth=4;startArrow=block;startFill=1;endFill=0;" parent="1" edge="1">
                    <mxGeometry width="50" height="50" relative="1" as="geometry">
                        <mxPoint x="321.05" y="1600" as="sourcePoint"/>
                        <mxPoint x="81.05" y="1600" as="targetPoint"/>
                    </mxGeometry>
                </mxCell>
                <mxCell id="80xBdCF-kYbZM-QKRMuW-22" value="" style="endArrow=none;html=1;rounded=0;fillColor=#dae8fc;strokeColor=#6c8ebf;strokeWidth=4;startArrow=block;startFill=1;endFill=0;" parent="1" edge="1">
                    <mxGeometry width="50" height="50" relative="1" as="geometry">
                        <mxPoint x="321.40000000000003" y="1630" as="sourcePoint"/>
                        <mxPoint x="81.39999999999999" y="1630" as="targetPoint"/>
                    </mxGeometry>
                </mxCell>
                <mxCell id="80xBdCF-kYbZM-QKRMuW-23" value="" style="endArrow=none;html=1;rounded=0;fillColor=#dae8fc;strokeColor=#6c8ebf;strokeWidth=4;startArrow=block;startFill=1;endFill=0;" parent="1" edge="1">
                    <mxGeometry width="50" height="50" relative="1" as="geometry">
                        <mxPoint x="321.40000000000003" y="1660" as="sourcePoint"/>
                        <mxPoint x="81.39999999999999" y="1660" as="targetPoint"/>
                    </mxGeometry>
                </mxCell>
                <mxCell id="80xBdCF-kYbZM-QKRMuW-24" value="" style="endArrow=none;html=1;rounded=0;fillColor=#dae8fc;strokeColor=#6c8ebf;strokeWidth=4;startArrow=none;startFill=0;endFill=0;" parent="1" edge="1">
                    <mxGeometry width="50" height="50" relative="1" as="geometry">
                        <mxPoint x="641.4" y="1570.0600000000002" as="sourcePoint"/>
                        <mxPoint x="401.40000000000003" y="1570.0600000000002" as="targetPoint"/>
                    </mxGeometry>
                </mxCell>
                <mxCell id="80xBdCF-kYbZM-QKRMuW-25" value="" style="endArrow=none;html=1;rounded=0;fillColor=#dae8fc;strokeColor=#6c8ebf;strokeWidth=4;startArrow=none;startFill=0;endFill=0;" parent="1" edge="1">
                    <mxGeometry width="50" height="50" relative="1" as="geometry">
                        <mxPoint x="641.4" y="1600.0600000000002" as="sourcePoint"/>
                        <mxPoint x="401.40000000000003" y="1600.0600000000002" as="targetPoint"/>
                    </mxGeometry>
                </mxCell>
                <mxCell id="80xBdCF-kYbZM-QKRMuW-26" value="" style="endArrow=none;html=1;rounded=0;fillColor=#dae8fc;strokeColor=#6c8ebf;strokeWidth=4;startArrow=none;startFill=0;endFill=0;" parent="1" edge="1">
                    <mxGeometry width="50" height="50" relative="1" as="geometry">
                        <mxPoint x="641.4" y="1630.4800000000002" as="sourcePoint"/>
                        <mxPoint x="401.40000000000003" y="1630.4800000000002" as="targetPoint"/>
                    </mxGeometry>
                </mxCell>
                <mxCell id="80xBdCF-kYbZM-QKRMuW-27" value="" style="endArrow=none;html=1;rounded=0;fillColor=#dae8fc;strokeColor=#6c8ebf;strokeWidth=4;startArrow=none;startFill=0;endFill=0;" parent="1" edge="1">
                    <mxGeometry width="50" height="50" relative="1" as="geometry">
                        <mxPoint x="641.4" y="1660.4800000000002" as="sourcePoint"/>
                        <mxPoint x="401.40000000000003" y="1660.4800000000002" as="targetPoint"/>
                    </mxGeometry>
                </mxCell>
                <mxCell id="80xBdCF-kYbZM-QKRMuW-28" value="" style="endArrow=none;html=1;rounded=0;fillColor=#dae8fc;strokeColor=#6c8ebf;strokeWidth=4;startArrow=block;startFill=1;endFill=0;" parent="1" edge="1">
                    <mxGeometry width="50" height="50" relative="1" as="geometry">
                        <mxPoint x="321.23" y="1688.34" as="sourcePoint"/>
                        <mxPoint x="81.22999999999999" y="1688.34" as="targetPoint"/>
                    </mxGeometry>
                </mxCell>
                <mxCell id="80xBdCF-kYbZM-QKRMuW-29" value="" style="endArrow=none;html=1;rounded=0;fillColor=#dae8fc;strokeColor=#6c8ebf;strokeWidth=4;startArrow=block;startFill=1;endFill=0;" parent="1" edge="1">
                    <mxGeometry width="50" height="50" relative="1" as="geometry">
                        <mxPoint x="320.88" y="1718.34" as="sourcePoint"/>
                        <mxPoint x="80.88" y="1718.34" as="targetPoint"/>
                    </mxGeometry>
                </mxCell>
                <mxCell id="80xBdCF-kYbZM-QKRMuW-30" value="" style="endArrow=none;html=1;rounded=0;fillColor=#dae8fc;strokeColor=#6c8ebf;strokeWidth=4;startArrow=block;startFill=1;endFill=0;" parent="1" edge="1">
                    <mxGeometry width="50" height="50" relative="1" as="geometry">
                        <mxPoint x="321.23" y="1748.34" as="sourcePoint"/>
                        <mxPoint x="81.22999999999999" y="1748.34" as="targetPoint"/>
                    </mxGeometry>
                </mxCell>
                <mxCell id="80xBdCF-kYbZM-QKRMuW-31" value="" style="endArrow=none;html=1;rounded=0;fillColor=#dae8fc;strokeColor=#6c8ebf;strokeWidth=4;startArrow=block;startFill=1;endFill=0;" parent="1" edge="1">
                    <mxGeometry width="50" height="50" relative="1" as="geometry">
                        <mxPoint x="321.23" y="1778.34" as="sourcePoint"/>
                        <mxPoint x="81.22999999999999" y="1778.34" as="targetPoint"/>
                    </mxGeometry>
                </mxCell>
                <mxCell id="80xBdCF-kYbZM-QKRMuW-32" value="" style="endArrow=none;html=1;rounded=0;fillColor=#dae8fc;strokeColor=#6c8ebf;strokeWidth=4;startArrow=none;startFill=0;endFill=0;" parent="1" edge="1">
                    <mxGeometry width="50" height="50" relative="1" as="geometry">
                        <mxPoint x="641.2299999999999" y="1688.4" as="sourcePoint"/>
                        <mxPoint x="401.23" y="1688.4" as="targetPoint"/>
                    </mxGeometry>
                </mxCell>
                <mxCell id="80xBdCF-kYbZM-QKRMuW-33" value="" style="endArrow=none;html=1;rounded=0;fillColor=#dae8fc;strokeColor=#6c8ebf;strokeWidth=4;startArrow=none;startFill=0;endFill=0;" parent="1" edge="1">
                    <mxGeometry width="50" height="50" relative="1" as="geometry">
                        <mxPoint x="641.2299999999999" y="1718.4" as="sourcePoint"/>
                        <mxPoint x="401.23" y="1718.4" as="targetPoint"/>
                    </mxGeometry>
                </mxCell>
                <mxCell id="80xBdCF-kYbZM-QKRMuW-34" value="" style="endArrow=none;html=1;rounded=0;fillColor=#dae8fc;strokeColor=#6c8ebf;strokeWidth=4;startArrow=none;startFill=0;endFill=0;" parent="1" edge="1">
                    <mxGeometry width="50" height="50" relative="1" as="geometry">
                        <mxPoint x="641.2299999999999" y="1748.8200000000002" as="sourcePoint"/>
                        <mxPoint x="401.23" y="1748.8200000000002" as="targetPoint"/>
                    </mxGeometry>
                </mxCell>
                <mxCell id="80xBdCF-kYbZM-QKRMuW-35" value="" style="endArrow=none;html=1;rounded=0;fillColor=#dae8fc;strokeColor=#6c8ebf;strokeWidth=4;startArrow=none;startFill=0;endFill=0;" parent="1" edge="1">
                    <mxGeometry width="50" height="50" relative="1" as="geometry">
                        <mxPoint x="641.2299999999999" y="1778.8200000000002" as="sourcePoint"/>
                        <mxPoint x="401.23" y="1778.8200000000002" as="targetPoint"/>
                    </mxGeometry>
                </mxCell>
                <mxCell id="80xBdCF-kYbZM-QKRMuW-36" value="" style="endArrow=none;html=1;rounded=0;fillColor=#dae8fc;strokeColor=#6c8ebf;strokeWidth=4;startArrow=block;startFill=1;endFill=0;" parent="1" edge="1">
                    <mxGeometry width="50" height="50" relative="1" as="geometry">
                        <mxPoint x="319.65000000000003" y="1810" as="sourcePoint"/>
                        <mxPoint x="79.64999999999999" y="1810" as="targetPoint"/>
                    </mxGeometry>
                </mxCell>
                <mxCell id="80xBdCF-kYbZM-QKRMuW-37" value="" style="endArrow=none;html=1;rounded=0;fillColor=#dae8fc;strokeColor=#6c8ebf;strokeWidth=4;startArrow=block;startFill=1;endFill=0;" parent="1" edge="1">
                    <mxGeometry width="50" height="50" relative="1" as="geometry">
                        <mxPoint x="319.65000000000003" y="1840" as="sourcePoint"/>
                        <mxPoint x="79.64999999999999" y="1840" as="targetPoint"/>
                    </mxGeometry>
                </mxCell>
                <mxCell id="80xBdCF-kYbZM-QKRMuW-38" value="" style="endArrow=none;html=1;rounded=0;fillColor=#dae8fc;strokeColor=#6c8ebf;strokeWidth=4;startArrow=none;startFill=0;endFill=0;" parent="1" edge="1">
                    <mxGeometry width="50" height="50" relative="1" as="geometry">
                        <mxPoint x="639.6499999999999" y="1810.4800000000002" as="sourcePoint"/>
                        <mxPoint x="399.65000000000003" y="1810.4800000000002" as="targetPoint"/>
                    </mxGeometry>
                </mxCell>
                <mxCell id="80xBdCF-kYbZM-QKRMuW-39" value="" style="endArrow=none;html=1;rounded=0;fillColor=#dae8fc;strokeColor=#6c8ebf;strokeWidth=4;startArrow=none;startFill=0;endFill=0;" parent="1" edge="1">
                    <mxGeometry width="50" height="50" relative="1" as="geometry">
                        <mxPoint x="639.6499999999999" y="1840.4800000000002" as="sourcePoint"/>
                        <mxPoint x="399.65000000000003" y="1840.4800000000002" as="targetPoint"/>
                    </mxGeometry>
                </mxCell>
                <mxCell id="80xBdCF-kYbZM-QKRMuW-8" value="" style="endArrow=none;html=1;rounded=0;strokeWidth=4;" parent="1" edge="1">
                    <mxGeometry width="50" height="50" relative="1" as="geometry">
                        <mxPoint x="80" y="1890" as="sourcePoint"/>
                        <mxPoint x="81.05" y="1520" as="targetPoint"/>
                    </mxGeometry>
                </mxCell>
                <mxCell id="80xBdCF-kYbZM-QKRMuW-40" value="なんか" style="rounded=0;whiteSpace=wrap;html=1;" parent="1" vertex="1">
                    <mxGeometry x="320" y="1330" width="80" height="520" as="geometry"/>
                </mxCell>
                <mxCell id="80xBdCF-kYbZM-QKRMuW-41" value="DEBUG&lt;br&gt;INTER-&lt;br&gt;FACE" style="rounded=0;whiteSpace=wrap;html=1;" parent="1" vertex="1">
                    <mxGeometry x="540" y="1330" width="60" height="520" as="geometry"/>
                </mxCell>
                <mxCell id="80xBdCF-kYbZM-QKRMuW-42" value="" style="rounded=0;whiteSpace=wrap;html=1;fillColor=#6C8EBF;strokeColor=none;" parent="1" vertex="1">
                    <mxGeometry x="190.35" y="1560" width="20" height="290" as="geometry"/>
                </mxCell>
                <mxCell id="80xBdCF-kYbZM-QKRMuW-44" value="なんか" style="rounded=0;whiteSpace=wrap;html=1;" parent="1" vertex="1">
                    <mxGeometry x="1060" y="1760" width="80" height="80" as="geometry"/>
                </mxCell>
                <mxCell id="80xBdCF-kYbZM-QKRMuW-45" value="SSR" style="rounded=0;whiteSpace=wrap;html=1;" parent="1" vertex="1">
                    <mxGeometry x="990" y="1770" width="40" height="20" as="geometry"/>
                </mxCell>
                <mxCell id="80xBdCF-kYbZM-QKRMuW-49" value="アンビリカルケーブル&lt;br&gt;4P なんか" style="rounded=0;whiteSpace=wrap;html=1;" parent="1" vertex="1">
                    <mxGeometry x="1380" y="1760" width="180" height="80" as="geometry"/>
                </mxCell>
                <mxCell id="80xBdCF-kYbZM-QKRMuW-50" value="" style="endArrow=none;html=1;rounded=0;fillColor=#dae8fc;strokeColor=#6c8ebf;strokeWidth=4;startArrow=block;startFill=1;endFill=0;" parent="1" edge="1">
                    <mxGeometry width="50" height="50" relative="1" as="geometry">
                        <mxPoint x="1380" y="1779.41" as="sourcePoint"/>
                        <mxPoint x="1140" y="1779.41" as="targetPoint"/>
                    </mxGeometry>
                </mxCell>
                <mxCell id="80xBdCF-kYbZM-QKRMuW-56" value="VALVE&lt;br&gt;MODE" style="edgeLabel;html=1;align=center;verticalAlign=middle;resizable=0;points=[];fontSize=12;fontFamily=Helvetica;fontColor=default;" parent="80xBdCF-kYbZM-QKRMuW-50" vertex="1" connectable="0">
                    <mxGeometry x="0.5667" y="-1" relative="1" as="geometry">
                        <mxPoint as="offset"/>
                    </mxGeometry>
                </mxCell>
                <mxCell id="80xBdCF-kYbZM-QKRMuW-51" value="" style="endArrow=none;html=1;rounded=0;fillColor=#dae8fc;strokeColor=#6c8ebf;strokeWidth=4;startArrow=block;startFill=1;endFill=0;" parent="1" edge="1">
                    <mxGeometry width="50" height="50" relative="1" as="geometry">
                        <mxPoint x="1380" y="1820" as="sourcePoint"/>
                        <mxPoint x="1140" y="1820" as="targetPoint"/>
                    </mxGeometry>
                </mxCell>
                <mxCell id="80xBdCF-kYbZM-QKRMuW-55" value="FLIGHT&lt;br&gt;MODE" style="edgeLabel;html=1;align=center;verticalAlign=middle;resizable=0;points=[];fontSize=12;fontFamily=Helvetica;fontColor=default;" parent="80xBdCF-kYbZM-QKRMuW-51" vertex="1" connectable="0">
                    <mxGeometry x="0.5567" relative="1" as="geometry">
                        <mxPoint as="offset"/>
                    </mxGeometry>
                </mxCell>
                <mxCell id="80xBdCF-kYbZM-QKRMuW-52" value="" style="rounded=0;whiteSpace=wrap;html=1;fillColor=#6C8EBF;strokeColor=none;" parent="1" vertex="1">
                    <mxGeometry x="1250" y="1770" width="20" height="60" as="geometry"/>
                </mxCell>
                <mxCell id="80xBdCF-kYbZM-QKRMuW-54" value="" style="endArrow=none;html=1;rounded=0;fillColor=#dae8fc;strokeColor=#6c8ebf;strokeWidth=4;startArrow=none;startFill=0;endFill=0;" parent="1" edge="1">
                    <mxGeometry width="50" height="50" relative="1" as="geometry">
                        <mxPoint x="990" y="1820" as="sourcePoint"/>
                        <mxPoint x="920" y="1820" as="targetPoint"/>
                    </mxGeometry>
                </mxCell>
                <mxCell id="80xBdCF-kYbZM-QKRMuW-46" value="SSR" style="rounded=0;whiteSpace=wrap;html=1;" parent="1" vertex="1">
                    <mxGeometry x="990" y="1810" width="40" height="20" as="geometry"/>
                </mxCell>
                <mxCell id="80xBdCF-kYbZM-QKRMuW-58" value="こもあ&lt;br&gt;2P なんか" style="rounded=0;whiteSpace=wrap;html=1;" parent="1" vertex="1">
                    <mxGeometry x="1380" y="1680" width="180" height="40" as="geometry"/>
                </mxCell>
                <mxCell id="80xBdCF-kYbZM-QKRMuW-59" value="" style="endArrow=none;html=1;rounded=0;fillColor=#d5e8d4;strokeColor=#82b366;strokeWidth=4;startArrow=block;startFill=1;endFill=0;" parent="1" edge="1">
                    <mxGeometry width="50" height="50" relative="1" as="geometry">
                        <mxPoint x="1380" y="1700" as="sourcePoint"/>
                        <mxPoint x="1140" y="1700" as="targetPoint"/>
                    </mxGeometry>
                </mxCell>
                <mxCell id="80xBdCF-kYbZM-QKRMuW-135" value="IGN" style="edgeLabel;html=1;align=center;verticalAlign=middle;resizable=0;points=[];fontSize=12;fontFamily=Helvetica;fontColor=default;" parent="80xBdCF-kYbZM-QKRMuW-59" vertex="1" connectable="0">
                    <mxGeometry x="0.0474" y="2" relative="1" as="geometry">
                        <mxPoint x="6" y="-2" as="offset"/>
                    </mxGeometry>
                </mxCell>
                <mxCell id="EHqpeQSWTMFwKQJ2zAnR-126" value="" style="endArrow=none;html=1;rounded=0;strokeWidth=4;" parent="1" edge="1">
                    <mxGeometry width="50" height="50" relative="1" as="geometry">
                        <mxPoint x="1380" y="1880" as="sourcePoint"/>
                        <mxPoint x="1380" y="1380" as="targetPoint"/>
                    </mxGeometry>
                </mxCell>
                <mxCell id="80xBdCF-kYbZM-QKRMuW-63" value="" style="endArrow=none;html=1;rounded=0;fillColor=#d5e8d4;strokeColor=#82b366;strokeWidth=4;startArrow=none;startFill=0;endFill=0;" parent="1" edge="1">
                    <mxGeometry width="50" height="50" relative="1" as="geometry">
                        <mxPoint x="1060" y="1700" as="sourcePoint"/>
                        <mxPoint x="1000" y="1700" as="targetPoint"/>
                    </mxGeometry>
                </mxCell>
                <mxCell id="80xBdCF-kYbZM-QKRMuW-57" value="なんか" style="rounded=0;whiteSpace=wrap;html=1;" parent="1" vertex="1">
                    <mxGeometry x="1060" y="1420" width="80" height="300" as="geometry"/>
                </mxCell>
                <mxCell id="80xBdCF-kYbZM-QKRMuW-64" value="" style="endArrow=none;html=1;rounded=0;fillColor=#dae8fc;strokeColor=#6c8ebf;strokeWidth=4;startArrow=none;startFill=0;endFill=0;" parent="1" source="80xBdCF-kYbZM-QKRMuW-61" edge="1">
                    <mxGeometry width="50" height="50" relative="1" as="geometry">
                        <mxPoint x="990" y="1699.91" as="sourcePoint"/>
                        <mxPoint x="920" y="1700" as="targetPoint"/>
                    </mxGeometry>
                </mxCell>
                <mxCell id="80xBdCF-kYbZM-QKRMuW-65" value="" style="endArrow=none;html=1;rounded=0;fillColor=#dae8fc;strokeColor=#6c8ebf;strokeWidth=4;startArrow=none;startFill=0;endFill=0;" parent="1" target="80xBdCF-kYbZM-QKRMuW-61" edge="1">
                    <mxGeometry width="50" height="50" relative="1" as="geometry">
                        <mxPoint x="990" y="1699.91" as="sourcePoint"/>
                        <mxPoint x="920" y="1700" as="targetPoint"/>
                    </mxGeometry>
                </mxCell>
                <mxCell id="80xBdCF-kYbZM-QKRMuW-61" value="FET" style="rounded=0;whiteSpace=wrap;html=1;" parent="1" vertex="1">
                    <mxGeometry x="960" y="1690" width="40" height="20" as="geometry"/>
                </mxCell>
                <mxCell id="80xBdCF-kYbZM-QKRMuW-67" value="" style="endArrow=none;html=1;rounded=0;fillColor=#d5e8d4;strokeColor=#82b366;strokeWidth=4;startArrow=none;startFill=0;endFill=0;" parent="1" edge="1">
                    <mxGeometry width="50" height="50" relative="1" as="geometry">
                        <mxPoint x="1030" y="1710" as="sourcePoint"/>
                        <mxPoint x="1030" y="1699.89" as="targetPoint"/>
                    </mxGeometry>
                </mxCell>
                <mxCell id="80xBdCF-kYbZM-QKRMuW-66" value="V" style="rounded=0;whiteSpace=wrap;html=1;" parent="1" vertex="1">
                    <mxGeometry x="1010" y="1710" width="40" height="20" as="geometry"/>
                </mxCell>
                <mxCell id="80xBdCF-kYbZM-QKRMuW-68" value="" style="endArrow=none;html=1;rounded=0;fillColor=#f8cecc;strokeColor=#b85450;strokeWidth=4;startArrow=none;startFill=0;endFill=0;" parent="1" edge="1">
                    <mxGeometry width="50" height="50" relative="1" as="geometry">
                        <mxPoint x="1010" y="1719.6" as="sourcePoint"/>
                        <mxPoint x="920" y="1720" as="targetPoint"/>
                    </mxGeometry>
                </mxCell>
                <mxCell id="80xBdCF-kYbZM-QKRMuW-69" value="ADC" style="rounded=0;whiteSpace=wrap;html=1;" parent="1" vertex="1">
                    <mxGeometry x="880" y="1710" width="40" height="20" as="geometry"/>
                </mxCell>
                <mxCell id="80xBdCF-kYbZM-QKRMuW-70" value="" style="endArrow=none;html=1;rounded=0;fillColor=#dae8fc;strokeColor=#6c8ebf;strokeWidth=4;startArrow=none;startFill=0;endFill=0;" parent="1" edge="1">
                    <mxGeometry width="50" height="50" relative="1" as="geometry">
                        <mxPoint x="990" y="1779.66" as="sourcePoint"/>
                        <mxPoint x="920" y="1779.66" as="targetPoint"/>
                    </mxGeometry>
                </mxCell>
                <mxCell id="80xBdCF-kYbZM-QKRMuW-71" value="" style="endArrow=none;html=1;rounded=0;fillColor=#d5e8d4;strokeColor=#82b366;strokeWidth=4;startArrow=block;startFill=1;endFill=0;" parent="1" edge="1">
                    <mxGeometry width="50" height="50" relative="1" as="geometry">
                        <mxPoint x="1380" y="1640" as="sourcePoint"/>
                        <mxPoint x="1140" y="1640" as="targetPoint"/>
                    </mxGeometry>
                </mxCell>
                <mxCell id="80xBdCF-kYbZM-QKRMuW-136" value="PUTGE" style="edgeLabel;html=1;align=center;verticalAlign=middle;resizable=0;points=[];fontSize=12;fontFamily=Helvetica;fontColor=default;" parent="80xBdCF-kYbZM-QKRMuW-71" vertex="1" connectable="0">
                    <mxGeometry x="-0.0043" y="-2" relative="1" as="geometry">
                        <mxPoint x="-1" y="2" as="offset"/>
                    </mxGeometry>
                </mxCell>
                <mxCell id="80xBdCF-kYbZM-QKRMuW-72" value="" style="endArrow=none;html=1;rounded=0;fillColor=#d5e8d4;strokeColor=#82b366;strokeWidth=4;startArrow=none;startFill=0;endFill=0;" parent="1" edge="1">
                    <mxGeometry width="50" height="50" relative="1" as="geometry">
                        <mxPoint x="1060" y="1640" as="sourcePoint"/>
                        <mxPoint x="1000" y="1640" as="targetPoint"/>
                    </mxGeometry>
                </mxCell>
                <mxCell id="80xBdCF-kYbZM-QKRMuW-73" value="" style="endArrow=none;html=1;rounded=0;fillColor=#dae8fc;strokeColor=#6c8ebf;strokeWidth=4;startArrow=none;startFill=0;endFill=0;" parent="1" source="80xBdCF-kYbZM-QKRMuW-75" edge="1">
                    <mxGeometry width="50" height="50" relative="1" as="geometry">
                        <mxPoint x="990" y="1639.91" as="sourcePoint"/>
                        <mxPoint x="920" y="1640" as="targetPoint"/>
                    </mxGeometry>
                </mxCell>
                <mxCell id="80xBdCF-kYbZM-QKRMuW-74" value="" style="endArrow=none;html=1;rounded=0;fillColor=#dae8fc;strokeColor=#6c8ebf;strokeWidth=4;startArrow=none;startFill=0;endFill=0;" parent="1" target="80xBdCF-kYbZM-QKRMuW-75" edge="1">
                    <mxGeometry width="50" height="50" relative="1" as="geometry">
                        <mxPoint x="990" y="1639.91" as="sourcePoint"/>
                        <mxPoint x="920" y="1640" as="targetPoint"/>
                    </mxGeometry>
                </mxCell>
                <mxCell id="80xBdCF-kYbZM-QKRMuW-75" value="FET" style="rounded=0;whiteSpace=wrap;html=1;" parent="1" vertex="1">
                    <mxGeometry x="960" y="1630" width="40" height="20" as="geometry"/>
                </mxCell>
                <mxCell id="80xBdCF-kYbZM-QKRMuW-76" value="" style="endArrow=none;html=1;rounded=0;fillColor=#d5e8d4;strokeColor=#82b366;strokeWidth=4;startArrow=none;startFill=0;endFill=0;" parent="1" edge="1">
                    <mxGeometry width="50" height="50" relative="1" as="geometry">
                        <mxPoint x="1030" y="1650" as="sourcePoint"/>
                        <mxPoint x="1030" y="1639.89" as="targetPoint"/>
                    </mxGeometry>
                </mxCell>
                <mxCell id="80xBdCF-kYbZM-QKRMuW-77" value="V" style="rounded=0;whiteSpace=wrap;html=1;" parent="1" vertex="1">
                    <mxGeometry x="1010" y="1650" width="40" height="20" as="geometry"/>
                </mxCell>
                <mxCell id="80xBdCF-kYbZM-QKRMuW-78" value="" style="endArrow=none;html=1;rounded=0;fillColor=#f8cecc;strokeColor=#b85450;strokeWidth=4;startArrow=none;startFill=0;endFill=0;" parent="1" edge="1">
                    <mxGeometry width="50" height="50" relative="1" as="geometry">
                        <mxPoint x="1010" y="1659.6" as="sourcePoint"/>
                        <mxPoint x="920" y="1660" as="targetPoint"/>
                    </mxGeometry>
                </mxCell>
                <mxCell id="80xBdCF-kYbZM-QKRMuW-79" value="ADC" style="rounded=0;whiteSpace=wrap;html=1;" parent="1" vertex="1">
                    <mxGeometry x="880" y="1650" width="40" height="20" as="geometry"/>
                </mxCell>
                <mxCell id="80xBdCF-kYbZM-QKRMuW-80" value="" style="endArrow=none;html=1;rounded=0;fillColor=#d5e8d4;strokeColor=#82b366;strokeWidth=4;startArrow=block;startFill=1;endFill=0;" parent="1" edge="1">
                    <mxGeometry width="50" height="50" relative="1" as="geometry">
                        <mxPoint x="1380" y="1600" as="sourcePoint"/>
                        <mxPoint x="1140" y="1600" as="targetPoint"/>
                    </mxGeometry>
                </mxCell>
                <mxCell id="80xBdCF-kYbZM-QKRMuW-137" value="CLOSE" style="edgeLabel;html=1;align=center;verticalAlign=middle;resizable=0;points=[];fontSize=12;fontFamily=Helvetica;fontColor=default;" parent="80xBdCF-kYbZM-QKRMuW-80" vertex="1" connectable="0">
                    <mxGeometry x="0.0014" y="1" relative="1" as="geometry">
                        <mxPoint y="-1" as="offset"/>
                    </mxGeometry>
                </mxCell>
                <mxCell id="80xBdCF-kYbZM-QKRMuW-81" value="" style="endArrow=none;html=1;rounded=0;fillColor=#d5e8d4;strokeColor=#82b366;strokeWidth=4;startArrow=none;startFill=0;endFill=0;" parent="1" edge="1">
                    <mxGeometry width="50" height="50" relative="1" as="geometry">
                        <mxPoint x="1060" y="1600" as="sourcePoint"/>
                        <mxPoint x="1000" y="1600" as="targetPoint"/>
                    </mxGeometry>
                </mxCell>
                <mxCell id="80xBdCF-kYbZM-QKRMuW-82" value="" style="endArrow=none;html=1;rounded=0;fillColor=#dae8fc;strokeColor=#6c8ebf;strokeWidth=4;startArrow=none;startFill=0;endFill=0;" parent="1" source="80xBdCF-kYbZM-QKRMuW-84" edge="1">
                    <mxGeometry width="50" height="50" relative="1" as="geometry">
                        <mxPoint x="990" y="1599.91" as="sourcePoint"/>
                        <mxPoint x="920" y="1600" as="targetPoint"/>
                    </mxGeometry>
                </mxCell>
                <mxCell id="80xBdCF-kYbZM-QKRMuW-83" value="" style="endArrow=none;html=1;rounded=0;fillColor=#dae8fc;strokeColor=#6c8ebf;strokeWidth=4;startArrow=none;startFill=0;endFill=0;" parent="1" target="80xBdCF-kYbZM-QKRMuW-84" edge="1">
                    <mxGeometry width="50" height="50" relative="1" as="geometry">
                        <mxPoint x="990" y="1599.91" as="sourcePoint"/>
                        <mxPoint x="920" y="1600" as="targetPoint"/>
                    </mxGeometry>
                </mxCell>
                <mxCell id="80xBdCF-kYbZM-QKRMuW-84" value="FET" style="rounded=0;whiteSpace=wrap;html=1;" parent="1" vertex="1">
                    <mxGeometry x="960" y="1590" width="40" height="20" as="geometry"/>
                </mxCell>
                <mxCell id="80xBdCF-kYbZM-QKRMuW-85" value="" style="endArrow=none;html=1;rounded=0;fillColor=#d5e8d4;strokeColor=#82b366;strokeWidth=4;startArrow=none;startFill=0;endFill=0;" parent="1" edge="1">
                    <mxGeometry width="50" height="50" relative="1" as="geometry">
                        <mxPoint x="1030" y="1610" as="sourcePoint"/>
                        <mxPoint x="1030" y="1599.89" as="targetPoint"/>
                    </mxGeometry>
                </mxCell>
                <mxCell id="80xBdCF-kYbZM-QKRMuW-86" value="V" style="rounded=0;whiteSpace=wrap;html=1;" parent="1" vertex="1">
                    <mxGeometry x="1010" y="1610" width="40" height="20" as="geometry"/>
                </mxCell>
                <mxCell id="80xBdCF-kYbZM-QKRMuW-87" value="" style="endArrow=none;html=1;rounded=0;fillColor=#f8cecc;strokeColor=#b85450;strokeWidth=4;startArrow=none;startFill=0;endFill=0;" parent="1" edge="1">
                    <mxGeometry width="50" height="50" relative="1" as="geometry">
                        <mxPoint x="1010" y="1619.6" as="sourcePoint"/>
                        <mxPoint x="920" y="1620" as="targetPoint"/>
                    </mxGeometry>
                </mxCell>
                <mxCell id="80xBdCF-kYbZM-QKRMuW-88" value="ADC" style="rounded=0;whiteSpace=wrap;html=1;" parent="1" vertex="1">
                    <mxGeometry x="880" y="1610" width="40" height="20" as="geometry"/>
                </mxCell>
                <mxCell id="80xBdCF-kYbZM-QKRMuW-89" value="" style="endArrow=none;html=1;rounded=0;fillColor=#d5e8d4;strokeColor=#82b366;strokeWidth=4;startArrow=block;startFill=1;endFill=0;" parent="1" edge="1">
                    <mxGeometry width="50" height="50" relative="1" as="geometry">
                        <mxPoint x="1380" y="1560" as="sourcePoint"/>
                        <mxPoint x="1140" y="1560" as="targetPoint"/>
                    </mxGeometry>
                </mxCell>
                <mxCell id="80xBdCF-kYbZM-QKRMuW-138" value="OPEN" style="edgeLabel;html=1;align=center;verticalAlign=middle;resizable=0;points=[];fontSize=12;fontFamily=Helvetica;fontColor=default;" parent="80xBdCF-kYbZM-QKRMuW-89" vertex="1" connectable="0">
                    <mxGeometry x="0.0129" y="-3" relative="1" as="geometry">
                        <mxPoint x="1" y="3" as="offset"/>
                    </mxGeometry>
                </mxCell>
                <mxCell id="80xBdCF-kYbZM-QKRMuW-90" value="" style="endArrow=none;html=1;rounded=0;fillColor=#d5e8d4;strokeColor=#82b366;strokeWidth=4;startArrow=none;startFill=0;endFill=0;" parent="1" edge="1">
                    <mxGeometry width="50" height="50" relative="1" as="geometry">
                        <mxPoint x="1060" y="1560" as="sourcePoint"/>
                        <mxPoint x="1000" y="1560" as="targetPoint"/>
                    </mxGeometry>
                </mxCell>
                <mxCell id="80xBdCF-kYbZM-QKRMuW-91" value="" style="endArrow=none;html=1;rounded=0;fillColor=#dae8fc;strokeColor=#6c8ebf;strokeWidth=4;startArrow=none;startFill=0;endFill=0;" parent="1" source="80xBdCF-kYbZM-QKRMuW-93" edge="1">
                    <mxGeometry width="50" height="50" relative="1" as="geometry">
                        <mxPoint x="990" y="1559.91" as="sourcePoint"/>
                        <mxPoint x="920" y="1560" as="targetPoint"/>
                    </mxGeometry>
                </mxCell>
                <mxCell id="80xBdCF-kYbZM-QKRMuW-92" value="" style="endArrow=none;html=1;rounded=0;fillColor=#dae8fc;strokeColor=#6c8ebf;strokeWidth=4;startArrow=none;startFill=0;endFill=0;" parent="1" target="80xBdCF-kYbZM-QKRMuW-93" edge="1">
                    <mxGeometry width="50" height="50" relative="1" as="geometry">
                        <mxPoint x="990" y="1559.91" as="sourcePoint"/>
                        <mxPoint x="920" y="1560" as="targetPoint"/>
                    </mxGeometry>
                </mxCell>
                <mxCell id="80xBdCF-kYbZM-QKRMuW-93" value="FET" style="rounded=0;whiteSpace=wrap;html=1;" parent="1" vertex="1">
                    <mxGeometry x="960" y="1550" width="40" height="20" as="geometry"/>
                </mxCell>
                <mxCell id="80xBdCF-kYbZM-QKRMuW-94" value="" style="endArrow=none;html=1;rounded=0;fillColor=#d5e8d4;strokeColor=#82b366;strokeWidth=4;startArrow=none;startFill=0;endFill=0;" parent="1" edge="1">
                    <mxGeometry width="50" height="50" relative="1" as="geometry">
                        <mxPoint x="1030" y="1570" as="sourcePoint"/>
                        <mxPoint x="1030" y="1559.89" as="targetPoint"/>
                    </mxGeometry>
                </mxCell>
                <mxCell id="80xBdCF-kYbZM-QKRMuW-95" value="V" style="rounded=0;whiteSpace=wrap;html=1;" parent="1" vertex="1">
                    <mxGeometry x="1010" y="1570" width="40" height="20" as="geometry"/>
                </mxCell>
                <mxCell id="80xBdCF-kYbZM-QKRMuW-96" value="" style="endArrow=none;html=1;rounded=0;fillColor=#f8cecc;strokeColor=#b85450;strokeWidth=4;startArrow=none;startFill=0;endFill=0;" parent="1" edge="1">
                    <mxGeometry width="50" height="50" relative="1" as="geometry">
                        <mxPoint x="1010" y="1579.6" as="sourcePoint"/>
                        <mxPoint x="920" y="1580" as="targetPoint"/>
                    </mxGeometry>
                </mxCell>
                <mxCell id="80xBdCF-kYbZM-QKRMuW-97" value="ADC" style="rounded=0;whiteSpace=wrap;html=1;" parent="1" vertex="1">
                    <mxGeometry x="880" y="1570" width="40" height="20" as="geometry"/>
                </mxCell>
                <mxCell id="80xBdCF-kYbZM-QKRMuW-98" value="" style="endArrow=none;html=1;rounded=0;fillColor=#d5e8d4;strokeColor=#82b366;strokeWidth=4;startArrow=block;startFill=1;endFill=0;" parent="1" edge="1">
                    <mxGeometry width="50" height="50" relative="1" as="geometry">
                        <mxPoint x="1380" y="1520" as="sourcePoint"/>
                        <mxPoint x="1140" y="1520" as="targetPoint"/>
                    </mxGeometry>
                </mxCell>
                <mxCell id="80xBdCF-kYbZM-QKRMuW-139" value="O2" style="edgeLabel;html=1;align=center;verticalAlign=middle;resizable=0;points=[];fontSize=12;fontFamily=Helvetica;fontColor=default;" parent="80xBdCF-kYbZM-QKRMuW-98" vertex="1" connectable="0">
                    <mxGeometry x="0.0244" y="2" relative="1" as="geometry">
                        <mxPoint x="3" y="-2" as="offset"/>
                    </mxGeometry>
                </mxCell>
                <mxCell id="80xBdCF-kYbZM-QKRMuW-99" value="" style="endArrow=none;html=1;rounded=0;fillColor=#d5e8d4;strokeColor=#82b366;strokeWidth=4;startArrow=none;startFill=0;endFill=0;" parent="1" edge="1">
                    <mxGeometry width="50" height="50" relative="1" as="geometry">
                        <mxPoint x="1060" y="1520" as="sourcePoint"/>
                        <mxPoint x="1000" y="1520" as="targetPoint"/>
                    </mxGeometry>
                </mxCell>
                <mxCell id="80xBdCF-kYbZM-QKRMuW-100" value="" style="endArrow=none;html=1;rounded=0;fillColor=#dae8fc;strokeColor=#6c8ebf;strokeWidth=4;startArrow=none;startFill=0;endFill=0;" parent="1" source="80xBdCF-kYbZM-QKRMuW-102" edge="1">
                    <mxGeometry width="50" height="50" relative="1" as="geometry">
                        <mxPoint x="990" y="1519.91" as="sourcePoint"/>
                        <mxPoint x="920" y="1520" as="targetPoint"/>
                    </mxGeometry>
                </mxCell>
                <mxCell id="80xBdCF-kYbZM-QKRMuW-101" value="" style="endArrow=none;html=1;rounded=0;fillColor=#dae8fc;strokeColor=#6c8ebf;strokeWidth=4;startArrow=none;startFill=0;endFill=0;" parent="1" target="80xBdCF-kYbZM-QKRMuW-102" edge="1">
                    <mxGeometry width="50" height="50" relative="1" as="geometry">
                        <mxPoint x="990" y="1519.91" as="sourcePoint"/>
                        <mxPoint x="920" y="1520" as="targetPoint"/>
                    </mxGeometry>
                </mxCell>
                <mxCell id="80xBdCF-kYbZM-QKRMuW-102" value="FET" style="rounded=0;whiteSpace=wrap;html=1;" parent="1" vertex="1">
                    <mxGeometry x="960" y="1510" width="40" height="20" as="geometry"/>
                </mxCell>
                <mxCell id="80xBdCF-kYbZM-QKRMuW-103" value="" style="endArrow=none;html=1;rounded=0;fillColor=#d5e8d4;strokeColor=#82b366;strokeWidth=4;startArrow=none;startFill=0;endFill=0;" parent="1" edge="1">
                    <mxGeometry width="50" height="50" relative="1" as="geometry">
                        <mxPoint x="1030" y="1530" as="sourcePoint"/>
                        <mxPoint x="1030" y="1519.89" as="targetPoint"/>
                    </mxGeometry>
                </mxCell>
                <mxCell id="80xBdCF-kYbZM-QKRMuW-104" value="V" style="rounded=0;whiteSpace=wrap;html=1;" parent="1" vertex="1">
                    <mxGeometry x="1010" y="1530" width="40" height="20" as="geometry"/>
                </mxCell>
                <mxCell id="80xBdCF-kYbZM-QKRMuW-105" value="" style="endArrow=none;html=1;rounded=0;fillColor=#f8cecc;strokeColor=#b85450;strokeWidth=4;startArrow=none;startFill=0;endFill=0;" parent="1" edge="1">
                    <mxGeometry width="50" height="50" relative="1" as="geometry">
                        <mxPoint x="1010" y="1539.6" as="sourcePoint"/>
                        <mxPoint x="920" y="1540" as="targetPoint"/>
                    </mxGeometry>
                </mxCell>
                <mxCell id="80xBdCF-kYbZM-QKRMuW-106" value="ADC" style="rounded=0;whiteSpace=wrap;html=1;" parent="1" vertex="1">
                    <mxGeometry x="880" y="1530" width="40" height="20" as="geometry"/>
                </mxCell>
                <mxCell id="80xBdCF-kYbZM-QKRMuW-116" value="" style="endArrow=none;html=1;rounded=0;fillColor=#d5e8d4;strokeColor=#82b366;strokeWidth=4;startArrow=block;startFill=1;endFill=0;" parent="1" edge="1">
                    <mxGeometry width="50" height="50" relative="1" as="geometry">
                        <mxPoint x="1380" y="1480" as="sourcePoint"/>
                        <mxPoint x="1140" y="1480" as="targetPoint"/>
                    </mxGeometry>
                </mxCell>
                <mxCell id="80xBdCF-kYbZM-QKRMuW-140" value="DUMP" style="edgeLabel;html=1;align=center;verticalAlign=middle;resizable=0;points=[];fontSize=12;fontFamily=Helvetica;fontColor=default;" parent="80xBdCF-kYbZM-QKRMuW-116" vertex="1" connectable="0">
                    <mxGeometry x="0.0072" relative="1" as="geometry">
                        <mxPoint as="offset"/>
                    </mxGeometry>
                </mxCell>
                <mxCell id="80xBdCF-kYbZM-QKRMuW-117" value="" style="endArrow=none;html=1;rounded=0;fillColor=#d5e8d4;strokeColor=#82b366;strokeWidth=4;startArrow=none;startFill=0;endFill=0;" parent="1" edge="1">
                    <mxGeometry width="50" height="50" relative="1" as="geometry">
                        <mxPoint x="1060" y="1480" as="sourcePoint"/>
                        <mxPoint x="1000" y="1480" as="targetPoint"/>
                    </mxGeometry>
                </mxCell>
                <mxCell id="80xBdCF-kYbZM-QKRMuW-118" value="" style="endArrow=none;html=1;rounded=0;fillColor=#dae8fc;strokeColor=#6c8ebf;strokeWidth=4;startArrow=none;startFill=0;endFill=0;" parent="1" source="80xBdCF-kYbZM-QKRMuW-120" edge="1">
                    <mxGeometry width="50" height="50" relative="1" as="geometry">
                        <mxPoint x="990" y="1479.91" as="sourcePoint"/>
                        <mxPoint x="920" y="1480" as="targetPoint"/>
                    </mxGeometry>
                </mxCell>
                <mxCell id="80xBdCF-kYbZM-QKRMuW-119" value="" style="endArrow=none;html=1;rounded=0;fillColor=#dae8fc;strokeColor=#6c8ebf;strokeWidth=4;startArrow=none;startFill=0;endFill=0;" parent="1" target="80xBdCF-kYbZM-QKRMuW-120" edge="1">
                    <mxGeometry width="50" height="50" relative="1" as="geometry">
                        <mxPoint x="990" y="1479.91" as="sourcePoint"/>
                        <mxPoint x="920" y="1480" as="targetPoint"/>
                    </mxGeometry>
                </mxCell>
                <mxCell id="80xBdCF-kYbZM-QKRMuW-120" value="FET" style="rounded=0;whiteSpace=wrap;html=1;" parent="1" vertex="1">
                    <mxGeometry x="960" y="1470" width="40" height="20" as="geometry"/>
                </mxCell>
                <mxCell id="80xBdCF-kYbZM-QKRMuW-121" value="" style="endArrow=none;html=1;rounded=0;fillColor=#d5e8d4;strokeColor=#82b366;strokeWidth=4;startArrow=none;startFill=0;endFill=0;" parent="1" edge="1">
                    <mxGeometry width="50" height="50" relative="1" as="geometry">
                        <mxPoint x="1030" y="1490" as="sourcePoint"/>
                        <mxPoint x="1030" y="1479.89" as="targetPoint"/>
                    </mxGeometry>
                </mxCell>
                <mxCell id="80xBdCF-kYbZM-QKRMuW-122" value="V" style="rounded=0;whiteSpace=wrap;html=1;" parent="1" vertex="1">
                    <mxGeometry x="1010" y="1490" width="40" height="20" as="geometry"/>
                </mxCell>
                <mxCell id="80xBdCF-kYbZM-QKRMuW-123" value="" style="endArrow=none;html=1;rounded=0;fillColor=#f8cecc;strokeColor=#b85450;strokeWidth=4;startArrow=none;startFill=0;endFill=0;" parent="1" edge="1">
                    <mxGeometry width="50" height="50" relative="1" as="geometry">
                        <mxPoint x="1010" y="1499.6" as="sourcePoint"/>
                        <mxPoint x="920" y="1500" as="targetPoint"/>
                    </mxGeometry>
                </mxCell>
                <mxCell id="80xBdCF-kYbZM-QKRMuW-124" value="ADC" style="rounded=0;whiteSpace=wrap;html=1;" parent="1" vertex="1">
                    <mxGeometry x="880" y="1490" width="40" height="20" as="geometry"/>
                </mxCell>
                <mxCell id="80xBdCF-kYbZM-QKRMuW-125" value="" style="endArrow=none;html=1;rounded=0;fillColor=#d5e8d4;strokeColor=#82b366;strokeWidth=4;startArrow=block;startFill=1;endFill=0;" parent="1" edge="1">
                    <mxGeometry width="50" height="50" relative="1" as="geometry">
                        <mxPoint x="1380" y="1440" as="sourcePoint"/>
                        <mxPoint x="1140" y="1440" as="targetPoint"/>
                    </mxGeometry>
                </mxCell>
                <mxCell id="80xBdCF-kYbZM-QKRMuW-141" value="FILL" style="edgeLabel;html=1;align=center;verticalAlign=middle;resizable=0;points=[];fontSize=12;fontFamily=Helvetica;fontColor=default;" parent="80xBdCF-kYbZM-QKRMuW-125" vertex="1" connectable="0">
                    <mxGeometry x="0.0187" y="-1" relative="1" as="geometry">
                        <mxPoint x="2" y="1" as="offset"/>
                    </mxGeometry>
                </mxCell>
                <mxCell id="80xBdCF-kYbZM-QKRMuW-126" value="" style="endArrow=none;html=1;rounded=0;fillColor=#d5e8d4;strokeColor=#82b366;strokeWidth=4;startArrow=none;startFill=0;endFill=0;" parent="1" edge="1">
                    <mxGeometry width="50" height="50" relative="1" as="geometry">
                        <mxPoint x="1060" y="1440" as="sourcePoint"/>
                        <mxPoint x="1000" y="1440" as="targetPoint"/>
                    </mxGeometry>
                </mxCell>
                <mxCell id="80xBdCF-kYbZM-QKRMuW-127" value="" style="endArrow=none;html=1;rounded=0;fillColor=#dae8fc;strokeColor=#6c8ebf;strokeWidth=4;startArrow=none;startFill=0;endFill=0;" parent="1" source="80xBdCF-kYbZM-QKRMuW-129" edge="1">
                    <mxGeometry width="50" height="50" relative="1" as="geometry">
                        <mxPoint x="990" y="1439.91" as="sourcePoint"/>
                        <mxPoint x="920" y="1440" as="targetPoint"/>
                    </mxGeometry>
                </mxCell>
                <mxCell id="80xBdCF-kYbZM-QKRMuW-128" value="" style="endArrow=none;html=1;rounded=0;fillColor=#dae8fc;strokeColor=#6c8ebf;strokeWidth=4;startArrow=none;startFill=0;endFill=0;" parent="1" target="80xBdCF-kYbZM-QKRMuW-129" edge="1">
                    <mxGeometry width="50" height="50" relative="1" as="geometry">
                        <mxPoint x="990" y="1439.91" as="sourcePoint"/>
                        <mxPoint x="920" y="1440" as="targetPoint"/>
                    </mxGeometry>
                </mxCell>
                <mxCell id="80xBdCF-kYbZM-QKRMuW-129" value="FET" style="rounded=0;whiteSpace=wrap;html=1;" parent="1" vertex="1">
                    <mxGeometry x="960" y="1430" width="40" height="20" as="geometry"/>
                </mxCell>
                <mxCell id="80xBdCF-kYbZM-QKRMuW-130" value="" style="endArrow=none;html=1;rounded=0;fillColor=#d5e8d4;strokeColor=#82b366;strokeWidth=4;startArrow=none;startFill=0;endFill=0;" parent="1" edge="1">
                    <mxGeometry width="50" height="50" relative="1" as="geometry">
                        <mxPoint x="1030" y="1450" as="sourcePoint"/>
                        <mxPoint x="1030" y="1439.89" as="targetPoint"/>
                    </mxGeometry>
                </mxCell>
                <mxCell id="80xBdCF-kYbZM-QKRMuW-131" value="V" style="rounded=0;whiteSpace=wrap;html=1;" parent="1" vertex="1">
                    <mxGeometry x="1010" y="1450" width="40" height="20" as="geometry"/>
                </mxCell>
                <mxCell id="80xBdCF-kYbZM-QKRMuW-132" value="" style="endArrow=none;html=1;rounded=0;fillColor=#f8cecc;strokeColor=#b85450;strokeWidth=4;startArrow=none;startFill=0;endFill=0;" parent="1" edge="1">
                    <mxGeometry width="50" height="50" relative="1" as="geometry">
                        <mxPoint x="1010" y="1459.6" as="sourcePoint"/>
                        <mxPoint x="920" y="1460" as="targetPoint"/>
                    </mxGeometry>
                </mxCell>
                <mxCell id="80xBdCF-kYbZM-QKRMuW-133" value="ADC" style="rounded=0;whiteSpace=wrap;html=1;" parent="1" vertex="1">
                    <mxGeometry x="880" y="1450" width="40" height="20" as="geometry"/>
                </mxCell>
                <mxCell id="80xBdCF-kYbZM-QKRMuW-134" value="電磁弁ユニット&lt;br&gt;なんか" style="rounded=0;whiteSpace=wrap;html=1;" parent="1" vertex="1">
                    <mxGeometry x="1380" y="1420" width="180" height="240" as="geometry"/>
                </mxCell>
            </root>
        </mxGraphModel>
    </diagram>
</mxfile>